<?xml version="1.0" encoding="utf-8"?>
<!-- Generator: Adobe Illustrator 25.0.1, SVG Export Plug-In . SVG Version: 6.00 Build 0)  -->
<svg version="1.1" id="Layer_1" xmlns="http://www.w3.org/2000/svg" xmlns:xlink="http://www.w3.org/1999/xlink" x="0px" y="0px"
	 viewBox="0 0 1366 1500" style="enable-background:new 0 0 1366 1500;" xml:space="preserve">
<style type="text/css">
	.st0{fill:#FFFFFF;}
	.st1{fill:#98F4F4;}
	.st2{fill:#C3EDED;}
	.st3{fill:#E8F4F4;}
	.st4{opacity:0.2;fill:#FFFFFF;}
	.st5{fill:#F2F2F2;}
	.st6{fill:#31DAE7;}
	.st7{fill:#F36B80;}
	.st8{fill:#82C8CE;}
	.st9{fill:#C7FBFF;}
	.st10{fill:#7FEAEA;}
	.st11{fill:#009ECF;}
	.st12{fill:#A4C2D4;}
	.st13{fill:#F1E9E3;}
	.st14{font-family:'ArialRoundedMTBold';}
	.st15{font-size:37.8737px;}
	.st16{fill:#FAD8C9;}
	.st17{fill:#79D3F2;}
	.st18{fill:#ACC6CB;}
	.st19{font-size:44.8579px;}
	.st20{fill:#69C0ED;}
	.st21{fill:#8AB0ED;}
	.st22{font-size:49.2569px;}
	.st23{font-size:41.7px;}
	.st24{font-size:43.4645px;}
	.st25{font-size:45.0406px;}
</style>
<g>
	<rect x="-20" y="-21" class="st0" width="1428" height="1523"/>
	<path class="st1" d="M-20,1253.2c120.9,0,250.2,158.8,263.4,248.8c-104.5,0-263.4,0-263.4,0V1253.2z"/>
	<path class="st2" d="M675.8,1502c-11.9-624.4,341.9-571.1,268.9-960.3C882.3,209.1,540.5,364.3,486.5-21c291.2,0,921.5,0,921.5,0
		v1523H675.8z"/>
	<g>
		<path class="st0" d="M542.6,1034.3l-9.6-18.3c-0.5-0.9-1.2-0.9-1.7,0c-0.5,0.9-0.5,2.3,0,3.2l7.5,14.3h-37c-0.7,0-1.2,1-1.2,2.3
			s0.5,2.3,1.2,2.3h37.1l-7.5,14.4c-0.5,0.9-0.5,2.3,0,3.2c0.2,0.4,0.5,0.7,0.8,0.7c0.3,0,0.6-0.2,0.8-0.7l9.6-18.3
			c0.2-0.4,0.4-1,0.4-1.6C542.9,1035.4,542.8,1034.8,542.6,1034.3z"/>
		<path class="st0" d="M376.1,1033.6h-37l7.5-14.3c0.5-0.9,0.5-2.3,0-3.2c-0.5-0.9-1.2-0.9-1.7,0l-9.6,18.3c-0.2,0.4-0.4,1-0.4,1.6
			c0,0.6,0.1,1.2,0.4,1.6l9.6,18.3c0.2,0.4,0.5,0.7,0.8,0.7c0.3,0,0.6-0.2,0.8-0.7c0.5-0.9,0.5-2.3,0-3.2l-7.5-14.4h37.1
			c0.7,0,1.2-1,1.2-2.3S376.7,1033.6,376.1,1033.6z"/>
	</g>
</g>
<g>
	<path class="st3" d="M1289.9,1271.4c31.1-51.2,49.1-111.6,49.1-176.3c0-185-146.9-335-328-335s-328,150-328,335
		c0,64.7,18,125.1,49.1,176.3H1289.9z"/>
	<path class="st4" d="M1245.8,868.3c-14.2-1.9-28.6-0.3-42.9-1.5c-14.3-1.2-28.3-5.1-41.2-11.5c-3.6-1.8-7.1-3.8-10.9-4.7
		c-5.2-1.2-10.6-0.5-15.9-0.3c-10.4,0.4-20.8-1.2-30.6-4.7c-3.3-1.2-7-3.2-7.5-6.7c-0.7-4.5,4.1-7.7,8.3-9.3
		c4.2-1.5,9.3-3.5,10.2-7.9c0.4-2-0.1-4.3,0.9-6c0.7-1.2,2-1.8,3.3-2.4c14-6.1,29.2-8.6,44.3-9.2c3.3-0.1,6.7,0,10.2,0.1
		c-18.1-10.6-37.3-19.5-57.3-26.5c-9.6,0.5-19.2,0.6-28.8,0.3c-20.1-0.6-41.8-2.6-59,8.1c-2.2,1.4-4.5,3.2-5.2,5.7
		c-1.8,6.3,6.1,10.7,12.4,12.3c1,4.4-4.7,6.9-9,7.7c-14,2.5-27.8,6.3-41.2,11.2c-9.5,3.5-20,9.1-21.9,19.2c-1.3,7.1,2.4,14.5,8,19
		c5.5,4.5,12.6,6.7,19.5,8.1c23.7,4.7,48.2,1.5,72.2,3.8c3.2,0.3,6.6,0.8,9.2,2.7c4.1,3,5.2,8.8,8.1,13c5.7,8.5,17.2,10.1,27.3,10.6
		c22.5,1.3,45,1.4,67.5,0.6c5.7-0.2,11.4-0.5,16.9,1c5.8,1.6,10.8,5.1,16.1,7.8c12.7,6.5,27,8.7,41,10.9c14.4,2.2,28.9,4.5,43.4,4.1
		c-11.4-19.5-24.6-37.7-39.5-54.4C1251,869.1,1248.4,868.6,1245.8,868.3z"/>
	<g>
		<path class="st0" d="M1258.8,964.3c0,0-0.9,9.5-8.3,10.2c7.3,0.7,8.3,10.2,8.3,10.2s0.9-9.5,8.3-10.2
			C1259.8,973.8,1258.8,964.3,1258.8,964.3z"/>
		<path class="st0" d="M920.6,811.3c0,0-1.3,12.6-11,13.5c9.8,0.9,11,13.5,11,13.5s1.3-12.6,11-13.5
			C921.8,823.9,920.6,811.3,920.6,811.3z"/>
		<path class="st0" d="M1293.1,1104c0,0-1,10-8.7,10.7c7.7,0.7,8.7,10.7,8.7,10.7s1-10,8.7-10.7
			C1294.1,1114,1293.1,1104,1293.1,1104z"/>
		<g>
			<path class="st0" d="M1226.6,1043c3.9,0,3.9-6.2,0-6.2C1222.7,1036.8,1222.7,1043,1226.6,1043L1226.6,1043z"/>
		</g>
		<g>
			<path class="st0" d="M1154.3,1080.1c2,0,2-3.1,0-3.1C1152.3,1077,1152.3,1080.1,1154.3,1080.1L1154.3,1080.1z"/>
		</g>
		<g>
			<path class="st0" d="M1265.8,1013.8c2,0,2-3.1,0-3.1C1263.8,1010.7,1263.8,1013.8,1265.8,1013.8L1265.8,1013.8z"/>
		</g>
		<g>
			<path class="st0" d="M1206.3,944.8c2,0,2-3.1,0-3.1C1204.4,941.7,1204.3,944.8,1206.3,944.8L1206.3,944.8z"/>
		</g>
		<g>
			<path class="st0" d="M887.3,861.9c2,0,2-3.1,0-3.1C885.4,858.8,885.4,861.9,887.3,861.9L887.3,861.9z"/>
		</g>
		<g>
			<path class="st0" d="M944.8,901.5c3.9,0,3.9-6.2,0-6.2C940.9,895.2,940.9,901.5,944.8,901.5L944.8,901.5z"/>
		</g>
		<g>
			<path class="st0" d="M947.5,853.7c2,0,2-3.1,0-3.1C945.5,850.6,945.5,853.7,947.5,853.7L947.5,853.7z"/>
		</g>
		<g>
			<path class="st0" d="M889.4,822.6c2,0,2-3.1,0-3.1C887.4,819.5,887.4,822.6,889.4,822.6L889.4,822.6z"/>
		</g>
		<g>
			<path class="st0" d="M867.1,821.8c1,0,1-1.6,0-1.6C866.1,820.3,866.1,821.8,867.1,821.8L867.1,821.8z"/>
		</g>
		<g>
			<path class="st0" d="M773.1,954.4c1,0,1-1.6,0-1.6C772.2,952.8,772.2,954.4,773.1,954.4L773.1,954.4z"/>
		</g>
		<g>
			<path class="st0" d="M828.5,949c2.9,0,2.9-4.7,0-4.7C825.6,944.3,825.6,949,828.5,949L828.5,949z"/>
		</g>
		<g>
			<path class="st0" d="M718.4,1033.1c2,0,2-3.1,0-3.1C716.4,1030,716.4,1033.1,718.4,1033.1L718.4,1033.1z"/>
		</g>
		<g>
			<path class="st0" d="M1195.5,857.7c4.4,0,4.4-7,0-7C1191.1,850.7,1191.1,857.7,1195.5,857.7L1195.5,857.7z"/>
		</g>
		<g>
			<path class="st0" d="M1119.1,806.8c2.9,0,2.9-4.7,0-4.7C1116.2,802.2,1116.2,806.8,1119.1,806.8L1119.1,806.8z"/>
		</g>
		<g>
			<path class="st0" d="M1050.9,824.7c2,0,2-3.1,0-3.1C1048.9,821.6,1048.9,824.7,1050.9,824.7L1050.9,824.7z"/>
		</g>
		<g>
			<path class="st0" d="M1169.1,836c1.5,0,1.5-2.3,0-2.3C1167.7,833.7,1167.7,836,1169.1,836L1169.1,836z"/>
		</g>
		<g>
			<path class="st0" d="M1228.6,872.6c1.5,0,1.5-2.3,0-2.3C1227.1,870.3,1227.1,872.6,1228.6,872.6L1228.6,872.6z"/>
		</g>
		<g>
			<path class="st0" d="M1171.8,942.3c1.5,0,1.5-2.3,0-2.3C1170.4,940,1170.4,942.3,1171.8,942.3L1171.8,942.3z"/>
		</g>
		<g>
			<path class="st0" d="M930.6,946.5c1.5,0,1.5-2.3,0-2.3C929.1,944.1,929.1,946.5,930.6,946.5L930.6,946.5z"/>
		</g>
	</g>
	<path class="st4" d="M1188.6,978.1c-2.2-3.1-5.6-5.1-8.9-6.8c-49.1-25.5-107.6-16.7-162.5-21.1c-14.1-1.1-28.3-3.3-41-9.6
		c-14.8-7.4-27.7-20.5-44.1-21.6c-11.6-0.7-26.9,3-31.8-7.7c-1.2-2.6-1.2-5.6-1.5-8.5c-5-39.3-77.9-27.9-85-27.5
		c-17.4,0.8-34.8,1.7-52.2,2.5c-17.2,20.6-32,43.4-44,67.9c16.4-0.2,32.8-0.3,49.1-0.4c8.1-0.1,16.3-0.1,24,2.3
		c10.5,3.3,19.3,10.9,29.8,14.3c8.1,2.6,16.7,2.6,25.1,2.5c30.6-0.2,61.2-0.5,91.8-0.7c5.8,0,11.7-0.1,17.1,2.1
		c5.3,2.1,9.6,6.1,14.4,9.3c15.8,10.3,35.6,10.5,54,14.1c5.8,1.1,12.3,3.2,15.1,8.5c4.7,8.9-4.2,19.1-13,23.6
		c-35.7,17.9-79.6,0.5-117.6,12.5c-10.2,3.2-19.6,8.4-29.5,12.4c-32.4,13-68.6,11.8-103.2,8.1c-29.3-3.2-58.8-8-88.2-7.2
		c-2.2,15.7-3.3,31.7-3.3,48c0,5.1,0.1,10.2,0.3,15.3c16.4,0.4,32.8,0.8,49.2,1.1c31,0.7,62,1.4,92.8-1.1c17.3-1.4,34.7-4,50.8-10.7
		c9.7-4.1,18.7-9.7,28.7-13c17.5-5.8,36.4-4.3,54.7-5.2c28.4-1.5,56.1-9,83.5-16.4c42.3-11.5,146.5-28.8,149.2-72.4
		C1192.5,987.5,1191.4,982.2,1188.6,978.1z"/>
	<path class="st5" d="M1072.5,1104H766.3c-9.5,0-17.2,7.7-17.2,17.2v0.9h340.6v-0.9C1089.7,1111.7,1082,1104,1072.5,1104z"/>
	<g>
		<path class="st6" d="M870.9,918h-45.1v-33.8h21.8c1.2,0,2.2-1,2.2-2.2c0-1.2-1-2.2-2.2-2.2H743.3v-12.2c0-1.4-1.1-2.4-2.4-2.4h0
			c-1.3,0-2.4,1.1-2.4,2.4v12.2h-13.7c-1.2,0-2.2,1-2.2,2.2c0,1.2,1,2.2,2.2,2.2h13.7v118.2c0,1.4,1.1,2.4,2.4,2.4h0
			c1.3,0,2.4-1.1,2.4-2.4V884.2h80.6V918h-45.1c-0.9,0-1.6,0.7-1.6,1.7s0.7,1.7,1.6,1.7h4.1v36.8h0.5v-36.8h22.9v36.8h0.5v-36.8
			h17.1h2h16.5v36.8h0.5v-36.8h24.1v36.8h0.5v-36.8h3.5c0.9,0,1.6-0.7,1.6-1.7S871.8,918,870.9,918z"/>
		<path class="st7" d="M784.1,951.7l1.8,4c0.2,0.4,0.5,0.6,0.8,0.7l3.9,0.6c0.9,0.1,1.2,1.4,0.6,2l-2.9,3.1
			c-0.3,0.3-0.4,0.7-0.3,1.1l0.7,4.4c0.2,1-0.8,1.7-1.6,1.3l-3.5-2.1c-0.3-0.2-0.7-0.2-1,0l-3.5,2.1c-0.8,0.5-1.7-0.3-1.6-1.3
			l0.7-4.4c0.1-0.4-0.1-0.8-0.3-1.1L775,959c-0.6-0.7-0.3-1.9,0.6-2l3.9-0.6c0.4-0.1,0.7-0.3,0.8-0.7l1.8-4
			C782.5,950.8,783.7,950.8,784.1,951.7z"/>
		<path class="st5" d="M843.5,951.7l1.8,4c0.2,0.4,0.5,0.6,0.8,0.7l3.9,0.6c0.9,0.1,1.2,1.4,0.6,2l-2.9,3.1
			c-0.3,0.3-0.4,0.7-0.3,1.1l0.7,4.4c0.2,1-0.8,1.7-1.6,1.3l-3.5-2.1c-0.3-0.2-0.7-0.2-1,0l-3.5,2.1c-0.8,0.5-1.7-0.3-1.6-1.3
			l0.7-4.4c0.1-0.4-0.1-0.8-0.3-1.1l-2.9-3.1c-0.6-0.7-0.3-1.9,0.6-2l3.9-0.6c0.4-0.1,0.7-0.3,0.8-0.7l1.8-4
			C842,950.8,843.1,950.8,843.5,951.7z"/>
		<path class="st6" d="M807.2,957.8l1.2,4c0.1,0.4,0.3,0.6,0.5,0.7l2.6,0.6c0.6,0.1,0.8,1.4,0.4,2l-1.9,3.1
			c-0.2,0.3-0.2,0.7-0.2,1.1l0.4,4.4c0.1,1-0.5,1.7-1,1.3l-2.3-2.1c-0.2-0.2-0.5-0.2-0.7,0l-2.3,2.1c-0.5,0.5-1.1-0.3-1-1.3l0.4-4.4
			c0-0.4,0-0.8-0.2-1.1l-1.9-3.1c-0.4-0.7-0.2-1.9,0.4-2l2.6-0.6c0.2-0.1,0.4-0.3,0.5-0.7l1.2-4
			C806.1,956.9,806.9,956.9,807.2,957.8z"/>
		<path class="st7" d="M867.8,957.8l1.2,4c0.1,0.4,0.3,0.6,0.5,0.7l2.6,0.6c0.6,0.1,0.8,1.4,0.4,2l-1.9,3.1
			c-0.2,0.3-0.2,0.7-0.2,1.1l0.4,4.4c0.1,1-0.5,1.7-1,1.3l-2.3-2.1c-0.2-0.2-0.5-0.2-0.7,0l-2.3,2.1c-0.5,0.5-1.1-0.3-1-1.3l0.4-4.4
			c0-0.4,0-0.8-0.2-1.1l-1.9-3.1c-0.4-0.7-0.2-1.9,0.4-2l2.6-0.6c0.2-0.1,0.4-0.3,0.5-0.7l1.2-4
			C866.8,956.9,867.5,956.9,867.8,957.8z"/>
	</g>
	<path class="st8" d="M1314.1,1276.8H704.7c-2.9,0-5.2-2.3-5.2-5.2v-0.5c0-2.9,2.3-5.2,5.2-5.2h609.5c2.9,0,5.2,2.3,5.2,5.2v0.5
		C1319.3,1274.5,1317,1276.8,1314.1,1276.8z"/>
	<path class="st9" d="M1089.7,998.4v16H749.1v-8c0-4.4-3.5-8-7.8-8l0,0c-4.3,0-7.8,3.6-7.8,8v8v17.3v90.3v27.3V1266h15.7v-116.6
		h340.6V1266h15.7V998.4H1089.7z M886.1,1031.7h58.7v90.3h-58.7V1031.7z M877,1122.1h-58.7v-90.3H877V1122.1z M954,1031.7h58.7v90.3
		H954V1031.7z M749.1,1031.7h60v90.3h-60V1031.7z M1089.7,1122.1h-67.9v-90.3h67.9V1122.1z"/>
</g>
<g>
	<g>
		<path class="st10" d="M1175.7,1251.3c0,3.1-2.4,5.6-5.4,5.6h-49.8c-3,0-5.4-2.5-5.4-5.6v-46.7c0-3.1,2.4-5.6,5.4-5.6h49.8
			c3,0,5.4,2.5,5.4,5.6V1251.3z"/>
		<path class="st10" d="M1170.8,1247.5c0,2.6-2,4.7-4.5,4.7h-41.8c-2.5,0-4.5-2.1-4.5-4.7v-39.2c0-2.6,2-4.7,4.5-4.7h41.8
			c2.5,0,4.5,2.1,4.5,4.7V1247.5z"/>
		<path class="st10" d="M1170.7,1199c0.2,7.4,0.4,14.7,0.2,22.1c-0.2,8.7,0,19.1-8.4,24.3c-5.7,3.5-13.1,3.5-19.5,3.4
			c-9.4-0.1-18.5-0.4-27.9-0.4v2.9c0,3.1,2.4,5.6,5.4,5.6h49.8c3,0,5.4-2.5,5.4-5.6v-46.7C1175.7,1201.6,1173.5,1199.2,1170.7,1199z
			"/>
		<path class="st10" d="M1118.9,1210c0,0-0.6-8.4,5.6-7.8c6.2,0.6,9.9,1.2,14.5,0.3c4.6-0.9,2.9,6.7-4,7.7c-6.9,1-9.3,0-9.3,4
			C1125.7,1218.3,1118.6,1220.8,1118.9,1210z"/>
	</g>
	<g>
		<path class="st11" d="M1298,1249.7c0,2.9-2.4,5.3-5.4,5.3h-50.3c-3,0-5.4-2.4-5.4-5.3v-44.4c0-2.9,2.4-5.3,5.4-5.3h50.3
			c3,0,5.4,2.4,5.4,5.3V1249.7z"/>
		<path class="st12" d="M1293,1200c0.2,7,0.4,14,0.2,21c-0.2,8.3,0,18.2-8.4,23.1c-5.8,3.4-13.2,3.3-19.7,3.2
			c-9.5-0.1-18.7-0.4-28.2-0.4v2.8c0,2.9,2.4,5.3,5.4,5.3h50.3c3,0,5.4-2.4,5.4-5.3v-44.4C1298,1202.5,1295.8,1200.2,1293,1200z"/>
		<path class="st13" d="M1240.6,1210.5c0,0-0.6-8,5.7-7.4c6.2,0.6,10,1.1,14.7,0.3c4.6-0.8,2.9,6.3-4.1,7.3c-7,1-9.4,0-9.4,3.8
			C1247.4,1218.3,1240.3,1220.7,1240.6,1210.5z"/>
	</g>
	<g>
		<path class="st11" d="M1236.5,1251.1c0,3.1-2.4,5.6-5.4,5.6h-49.8c-3,0-5.4-2.5-5.4-5.6v-46.7c0-3.1,2.4-5.6,5.4-5.6h49.8
			c3,0,5.4,2.5,5.4,5.6V1251.1z"/>
		<path class="st12" d="M1231.6,1198.8c0.2,7.4,0.4,14.7,0.2,22.1c-0.2,8.7,0,19.1-8.4,24.3c-5.7,3.5-13.1,3.5-19.5,3.4
			c-9.4-0.1-18.5-0.4-27.9-0.4v2.9c0,3.1,2.4,5.6,5.4,5.6h49.8c3,0,5.4-2.5,5.4-5.6v-46.7C1236.5,1201.4,1234.4,1199,1231.6,1198.8z
			"/>
		<path class="st13" d="M1179.8,1209.9c0,0-0.6-8.3,5.6-7.7c6.2,0.6,9.9,1.1,14.5,0.3c4.6-0.9,2.9,6.6-4,7.6c-6.9,1-9.3,0-9.3,4
			C1186.5,1218.1,1179.5,1220.5,1179.8,1209.9z"/>
	</g>
	<g>
		<path class="st3" d="M1160.8,1079.7c0,3.1-2.4,5.6-5.4,5.6h-49.8c-3,0-5.4-2.5-5.4-5.6V1033c0-3.1,2.4-5.6,5.4-5.6h49.8
			c3,0,5.4,2.5,5.4,5.6V1079.7z"/>
		<path class="st13" d="M1108.3,1046.3c0,0-0.6-8.4,5.6-7.8c6.2,0.6,9.9,1.2,14.5,0.3c4.6-0.9,2.9,6.7-4,7.7c-6.9,1-9.3,0-9.3,4
			C1115,1054.5,1108,1057,1108.3,1046.3z"/>
		<text transform="matrix(0.9305 0 0 1 1119.6992 1071.5557)" class="st14 st15">J</text>
		<path class="st16" d="M1155.9,1027.4c0.2,7.4,0.4,14.7,0.2,22.1c-0.2,8.7,0,19.1-8.3,24.3c-5.7,3.5-13.1,3.5-19.5,3.4
			c-9.4-0.1-18.5-0.4-27.9-0.4v2.9c0,3.1,2.4,5.6,5.4,5.6h49.8c3,0,5.4-2.5,5.4-5.6V1033C1160.8,1030,1158.7,1027.6,1155.9,1027.4z"
			/>
		<path class="st17" d="M1180,1137.2c0,3.1-2.4,5.6-5.4,5.6h-49.8c-3,0-5.4-2.5-5.4-5.6v-46.7c0-3.1,2.4-5.6,5.4-5.6h49.8
			c3,0,5.4,2.5,5.4,5.6V1137.2z"/>
		<path class="st0" d="M1122.2,1095.1c0,0-0.6-8.4,5.6-7.8c6.2,0.6,9.9,1.2,14.5,0.3c4.6-0.9,2.9,6.7-4,7.7c-6.9,1-9.3,0-9.3,4
			S1121.9,1105.9,1122.2,1095.1z"/>
		<path class="st18" d="M1175.1,1084.9c0.2,7.4,0.4,14.7,0.2,22.1c-0.2,8.7,0,19.1-8.3,24.3c-5.7,3.5-13.1,3.5-19.5,3.4
			c-9.4-0.1-18.5-0.4-27.9-0.4v2.9c0,3.1,2.4,5.6,5.4,5.6h49.8c3,0,5.4-2.5,5.4-5.6v-46.7C1180,1087.6,1177.8,1085.2,1175.1,1084.9z
			"/>
		<text transform="matrix(0.9007 0 0 1 1136.835 1128.8145)" class="st14 st19">A</text>
		<path class="st20" d="M1159.4,1195.3c0,3.1-2.4,5.6-5.4,5.6h-49.8c-3,0-5.4-2.5-5.4-5.6v-46.7c0-3.1,2.4-5.6,5.4-5.6h49.8
			c3,0,5.4,2.5,5.4,5.6V1195.3z"/>
		<path class="st20" d="M1154.6,1191.6c0,2.6-2,4.7-4.5,4.7h-41.8c-2.5,0-4.5-2.1-4.5-4.7v-39.2c0-2.6,2-4.7,4.5-4.7h41.8
			c2.5,0,4.5,2.1,4.5,4.7V1191.6z"/>
		<path class="st21" d="M1154.5,1143.1c0.2,7.4,0.4,14.7,0.2,22.1c-0.2,8.7,0,19.1-8.3,24.3c-5.7,3.5-13.1,3.5-19.5,3.4
			c-9.4-0.1-18.5-0.4-27.9-0.4v2.9c0,3.1,2.4,5.6,5.4,5.6h49.8c3,0,5.4-2.5,5.4-5.6v-46.7
			C1159.4,1145.7,1157.2,1143.3,1154.5,1143.1z"/>
		<path class="st20" d="M1102.7,1154.1c0,0-0.6-8.4,5.6-7.8c6.2,0.6,9.9,1.2,14.5,0.3c4.6-0.9,2.9,6.7-4,7.7c-6.9,1-9.3,0-9.3,4.1
			C1109.4,1162.3,1102.4,1164.8,1102.7,1154.1z"/>
		<text transform="matrix(0.907 0 0 1 1117.8877 1189.8818)" class="st14 st22">L</text>
	</g>
	<text transform="matrix(0.8815 0 0 1 1132.5449 1242.5684)" class="st14 st23">E</text>
</g>
<g>
	<g>
		<path class="st10" d="M1036.1,1261.5c-3.2,0-5.8-2.4-5.8-5.4v-50.2c0-3,2.6-5.4,5.8-5.4h48.7c3.2,0,5.8,2.4,5.8,5.4v50.2
			c0,3-2.6,5.4-5.8,5.4H1036.1z"/>
		<path class="st10" d="M1040,1256.6c-2.7,0-4.9-2-4.9-4.5v-42.1c0-2.5,2.2-4.5,4.9-4.5h40.9c2.7,0,4.9,2,4.9,4.5v42.1
			c0,2.5-2.2,4.5-4.9,4.5H1040z"/>
		<path class="st10" d="M1090.6,1256.5c-7.7,0.2-15.3,0.4-23,0.2c-9.1-0.2-19.9,0-25.3-8.4c-3.7-5.8-3.6-13.2-3.5-19.7
			c0.2-9.5,0.4-18.6,0.4-28.1h-3.1c-3.2,0-5.8,2.4-5.8,5.4v50.2c0,3,2.6,5.4,5.8,5.4h48.7
			C1087.8,1261.5,1090.3,1259.3,1090.6,1256.5z"/>
		<path class="st10" d="M1079.1,1204.3c0,0,8.7-0.6,8.1,5.6c-0.6,6.2-1.2,10-0.3,14.6c0.9,4.6-6.9,2.9-8-4c-1.1-6.9,0-9.4-4.2-9.4
			C1070.5,1211.1,1067.9,1204.1,1079.1,1204.3z"/>
	</g>
	<text transform="matrix(0 0.8524 -1 0 1044.9316 1217.5146)" class="st14 st24">E</text>
</g>
<g>
	<path d="M-203.1,201.7v-0.2c0.5-0.1,0.6-0.1,0.6-0.7v-1.7c0-0.5,0-0.6-0.5-0.7v-0.2c0.5-0.1,0.9-0.2,1.3-0.3v2.9
		c0,0.6,0.1,0.6,0.6,0.7v0.2H-203.1z M-202.7,196.7c0-0.3,0.2-0.5,0.5-0.5s0.5,0.2,0.5,0.5c0,0.2-0.2,0.5-0.5,0.5
		C-202.5,197.2-202.7,197-202.7,196.7z"/>
	<path d="M-198.7,198c0.2-0.1,0.3-0.1,0.5-0.1c1,0,1.6,0.8,1.6,1.6c0,1.3-1,2.1-2.2,2.3c-0.3,0-0.5-0.1-0.6-0.1v1.1
		c0,0.6,0.1,0.7,0.7,0.7v0.2h-2.1v-0.2c0.6-0.1,0.6-0.1,0.6-0.7V199c0-0.5,0-0.6-0.6-0.6v-0.2c0.4-0.1,0.9-0.2,1.3-0.4v0.7
		L-198.7,198z M-199.5,201.1c0.2,0.2,0.5,0.3,0.8,0.3c0.7,0,1.2-0.7,1.2-1.5c0-0.9-0.6-1.4-1.2-1.4c-0.3,0-0.6,0.2-0.8,0.4V201.1z"
		/>
	<path d="M-193.8,199c-0.2-0.5-0.5-0.9-0.9-0.9c-0.3,0-0.5,0.2-0.5,0.6c0,0.4,0.3,0.6,0.7,0.7c0.7,0.3,1.1,0.6,1.1,1.2
		c0,0.8-0.7,1.2-1.5,1.2c-0.5,0-0.9-0.2-1-0.3c-0.1-0.1-0.1-0.7-0.2-1.1l0.2,0c0.2,0.6,0.6,1.1,1.1,1.1c0.3,0,0.6-0.2,0.6-0.6
		c0-0.4-0.2-0.5-0.7-0.7c-0.5-0.2-1.1-0.5-1.1-1.2c0-0.6,0.5-1.1,1.3-1.1c0.4,0,0.6,0.1,0.8,0.2c0.1,0.2,0.2,0.7,0.2,0.9L-193.8,199
		z"/>
	<path d="M-188.6,201.5c-0.2,0-0.4,0.1-0.7,0.1c-0.2,0.1-0.5,0.1-0.7,0.2l-0.1,0v-0.6c-0.2,0.1-0.4,0.3-0.6,0.4
		c-0.3,0.1-0.4,0.2-0.7,0.2c-0.6,0-1.1-0.4-1.1-1.3v-1.6c0-0.5-0.1-0.5-0.3-0.6l-0.2-0.1v-0.2c0.2,0,0.4,0,0.7-0.1
		c0.2,0,0.5-0.1,0.7-0.1c0,0.3,0,0.7,0,1.2v1.2c0,0.7,0.4,0.9,0.8,0.9c0.3,0,0.6-0.1,0.9-0.4v-2c0-0.5-0.1-0.5-0.4-0.6l-0.3-0.1
		v-0.2c0.2,0,0.6,0,0.8-0.1c0.3,0,0.5-0.1,0.6-0.1v2.8c0,0.4,0.1,0.5,0.4,0.5l0.2,0V201.5z"/>
	<path d="M-183.3,201.7v-0.2c0.5-0.1,0.6-0.1,0.6-0.7v-1.4c0-0.6-0.2-1-0.8-1c-0.3,0-0.6,0.2-0.9,0.4c0,0.1,0,0.2,0,0.4v1.6
		c0,0.5,0.1,0.6,0.6,0.6v0.2h-1.9v-0.2c0.5-0.1,0.6-0.1,0.6-0.7v-1.4c0-0.6-0.2-1-0.7-1c-0.3,0-0.7,0.2-0.9,0.4v2
		c0,0.6,0.1,0.6,0.5,0.7v0.2h-1.9v-0.2c0.6-0.1,0.6-0.1,0.6-0.7v-1.7c0-0.5,0-0.6-0.5-0.7v-0.2c0.4-0.1,0.9-0.2,1.3-0.3v0.7
		c0.2-0.1,0.4-0.3,0.6-0.4c0.2-0.1,0.4-0.2,0.7-0.2c0.4,0,0.8,0.3,1,0.7c0.3-0.2,0.5-0.3,0.7-0.5c0.2-0.1,0.4-0.2,0.7-0.2
		c0.7,0,1.1,0.5,1.1,1.3v1.6c0,0.6,0.1,0.6,0.6,0.7v0.2H-183.3z"/>
</g>
<text transform="matrix(0.9816 0 0 1 1191.5107 1243.915)" class="st14 st25">S</text>
<text transform="matrix(0.9816 0 0 1 1250.8497 1244.1578)" class="st14 st25">S</text>
</svg>
