<?xml version="1.0" encoding="utf-8"?>
<!-- Generator: Adobe Illustrator 25.0.1, SVG Export Plug-In . SVG Version: 6.00 Build 0)  -->
<svg version="1.1" id="Layer_1" xmlns="http://www.w3.org/2000/svg" xmlns:xlink="http://www.w3.org/1999/xlink" x="0px" y="0px"
	 viewBox="0 0 3600 2000" style="enable-background:new 0 0 3600 2000;" xml:space="preserve">
<style type="text/css">
	.st0{fill:#FFFFFF;}
	.st1{fill:#98F4F4;}
	.st2{fill:#C3EDED;}
	.st3{fill:#E8F4F4;}
	.st4{opacity:0.2;fill:#FFFFFF;enable-background:new    ;}
	.st5{fill:#F2F2F2;}
	.st6{fill:#31DAE7;}
	.st7{fill:#F36B80;}
	.st8{fill:#82C8CE;}
	.st9{fill:#C7FBFF;}
	.st10{fill:#7FEAEA;}
	.st11{fill:#009ECF;}
	.st12{fill:#A4C2D4;}
	.st13{fill:#F1E9E3;}
	.st14{font-family:'ArialRoundedMTBold';}
	.st15{font-size:94.8908px;}
	.st16{fill:#FAD8C9;}
	.st17{fill:#79D3F2;}
	.st18{fill:#ACC6CB;}
	.st19{font-size:112.3896px;}
	.st20{fill:#69C0ED;}
	.st21{fill:#8AB0ED;}
	.st22{font-size:123.411px;}
	.st23{font-size:104.4775px;}
	.st24{fill:#FFFFFF;stroke:#FFFFFF;stroke-miterlimit:10;}
	.st25{font-size:115.1726px;}
	.st26{font-size:109.6535px;}
</style>
<g id="Ñëîé_2">
	<g>
		<rect x="-2.3" y="-2.9" class="st0" width="3600" height="2000"/>
		<path class="st1" d="M-2.3,1670.4c304.9,0,630.9,208.5,664,326.7c-263.5,0-664,0-664,0L-2.3,1670.4L-2.3,1670.4z"/>
		<path class="st2" d="M1751.7,1997.1c-30-820,862-750,677.9-1261.1C2272.3,299.2,1410.7,503.1,1274.7-2.9c734,0,2323,0,2323,0v2000
			H1751.7z"/>
		<g>
			<path class="st0" d="M1416,1383l-24.1-24c-1.2-1.2-3.1-1.2-4.2,0c-1.2,1.2-1.2,3.1,0,4.2l18.9,18.8h-93.4c-1.7,0-3,1.3-3,3
				s1.3,3,3,3h93.5l-19,18.9c-1.2,1.2-1.2,3.1,0,4.2c0.6,0.6,1.4,0.9,2.1,0.9c0.8,0,1.5-0.3,2.1-0.9l24.1-24
				c0.6-0.6,0.9-1.3,0.9-2.1C1416.9,1384.3,1416.5,1383.5,1416,1383z"/>
			<path class="st0" d="M996.2,1382h-93.4l18.9-18.8c1.2-1.2,1.2-3.1,0-4.2c-1.2-1.2-3.1-1.2-4.2,0l-24.1,24
				c-0.6,0.6-0.9,1.3-0.9,2.1c0,0.8,0.3,1.6,0.9,2.1l24.1,24c0.6,0.6,1.4,0.9,2.1,0.9c0.8,0,1.5-0.3,2.1-0.9c1.2-1.2,1.2-3.1,0-4.2
				l-19-18.9h93.5c1.7,0,3-1.3,3-3C999.2,1383.4,997.9,1382,996.2,1382z"/>
		</g>
	</g>
</g>
<g id="Layer_1_1_">
	<g>
		<path class="st3" d="M3363.2,1741.2c82.5-132.9,130.1-289.6,130.1-457.5c0-480-389.4-869.2-869.6-869.2S1754,803.6,1754,1283.7
			c0,167.9,47.6,324.6,130.1,457.5H3363.2z"/>
		<path class="st4" d="M3246.2,695.4c-37.6-4.8-75.9-0.8-113.7-3.8s-75.1-13.2-109.2-29.9c-9.4-4.6-18.8-9.8-29-12.2
			c-13.7-3.2-28.1-1.3-42.2-0.7c-27.5,1.1-55.2-3-81.1-12.2c-8.8-3.1-18.5-8.2-20-17.4c-1.8-11.7,10.9-20.1,22.1-24.1
			c11.2-4,24.5-9,27-20.6c1.1-5.2-0.4-11.1,2.5-15.6c1.9-3.1,5.4-4.8,8.8-6.2c37-16,77.3-22.2,117.4-23.9c8.8-0.4,17.8,0,27,0.3
			c-48-27.5-98.8-50.6-152-68.7c-25.4,1.3-50.9,1.7-76.4,0.9c-53.4-1.6-110.8-6.8-156.5,21c-5.9,3.6-11.9,8.2-13.8,14.9
			c-4.8,16.4,16.2,27.6,32.8,31.8c2.6,11.4-12.4,17.9-23.9,19.9c-37.1,6.6-73.7,16.3-109.1,29.1c-25.1,9.1-53.1,23.5-58,49.8
			c-3.5,18.5,6.4,37.6,21.1,49.3c14.6,11.8,33.3,17.4,51.7,21c62.8,12.2,127.8,3.8,191.5,9.9c8.5,0.8,17.4,2,24.3,7
			c10.9,7.9,13.9,22.7,21.5,33.9c15.2,22.1,45.6,26.1,72.4,27.6c59.6,3.2,119.4,3.7,179,1.5c15-0.6,30.3-1.3,44.9,2.6
			c15.3,4.1,28.6,13.2,42.8,20.2c33.6,16.8,71.5,22.7,108.7,28.4c38.1,5.8,76.6,11.7,115.1,10.8c-30.1-50.6-65.2-97.8-104.6-141.1
			C3260.1,697.5,3253.1,696.2,3246.2,695.4z"/>
		<g>
			<path class="st0" d="M3280.8,944.4c0,0-2.5,24.6-21.9,26.3c19.4,1.7,21.9,26.3,21.9,26.3s2.5-24.6,21.9-26.3
				C3283.3,969.1,3280.8,944.4,3280.8,944.4z"/>
			<path class="st0" d="M2383.9,547.5c0,0-3.3,32.8-29.2,35.1c25.9,2.3,29.2,35.1,29.2,35.1s3.3-32.8,29.2-35.1
				C2387.3,580.3,2383.9,547.5,2383.9,547.5z"/>
			<path class="st0" d="M3371.6,1306.9c0,0-2.6,25.9-23.1,27.7c20.5,1.8,23.1,27.7,23.1,27.7s2.6-25.9,23.1-27.7
				C3374.2,1332.9,3371.6,1306.9,3371.6,1306.9z"/>
			<g>
				<path class="st0" d="M3195.2,1148.6c10.4,0,10.4-16.1,0-16.1C3184.9,1132.5,3184.8,1148.6,3195.2,1148.6L3195.2,1148.6z"/>
			</g>
			<g>
				<path class="st0" d="M3003.5,1244.9c5.2,0,5.2-8.1,0-8.1S2998.3,1244.9,3003.5,1244.9L3003.5,1244.9z"/>
			</g>
			<g>
				<path class="st0" d="M3299.2,1072.9c5.2,0,5.2-8.1,0-8.1C3294,1064.9,3294,1072.9,3299.2,1072.9L3299.2,1072.9z"/>
			</g>
			<g>
				<path class="st0" d="M3141.5,893.9c5.2,0,5.2-8.1,0-8.1C3136.3,885.8,3136.3,893.9,3141.5,893.9L3141.5,893.9z"/>
			</g>
			<g>
				<path class="st0" d="M2295.8,679c5.2,0,5.2-8.1,0-8.1S2290.6,679,2295.8,679L2295.8,679z"/>
			</g>
			<g>
				<path class="st0" d="M2448.1,781.5c10.4,0,10.4-16.1,0-16.1C2437.7,765.4,2437.7,781.5,2448.1,781.5L2448.1,781.5z"/>
			</g>
			<g>
				<path class="st0" d="M2455.3,657.5c5.2,0,5.2-8.1,0-8.1S2450.1,657.5,2455.3,657.5L2455.3,657.5z"/>
			</g>
			<g>
				<path class="st0" d="M2301.2,576.9c5.2,0,5.2-8.1,0-8.1C2296,568.8,2296,576.9,2301.2,576.9L2301.2,576.9z"/>
			</g>
			<g>
				<path class="st0" d="M2242,574.9c2.6,0,2.6-4,0-4C2239.4,570.8,2239.4,574.9,2242,574.9L2242,574.9z"/>
			</g>
			<g>
				<path class="st0" d="M1993,918.7c2.6,0,2.6-4,0-4S1990.4,918.7,1993,918.7L1993,918.7z"/>
			</g>
			<g>
				<path class="st0" d="M2139.9,904.8c7.8,0,7.8-12.1,0-12.1C2132.1,892.7,2132.1,904.8,2139.9,904.8L2139.9,904.8z"/>
			</g>
			<g>
				<path class="st0" d="M1847.9,1123.1c5.2,0,5.2-8.1,0-8.1C1842.7,1115,1842.7,1123.1,1847.9,1123.1L1847.9,1123.1z"/>
			</g>
			<g>
				<path class="st0" d="M3112.8,667.9c11.7,0,11.7-18.1,0-18.1C3101.1,649.7,3101.1,667.9,3112.8,667.9L3112.8,667.9z"/>
			</g>
			<g>
				<path class="st0" d="M2910.4,535.9c7.8,0,7.8-12.1,0-12.1C2902.6,523.8,2902.6,535.9,2910.4,535.9L2910.4,535.9z"/>
			</g>
			<g>
				<path class="st0" d="M2729.4,582.2c5.2,0,5.2-8.1,0-8.1C2724.2,574.2,2724.2,582.2,2729.4,582.2L2729.4,582.2z"/>
			</g>
			<g>
				<path class="st0" d="M3042.9,611.7c3.9,0,3.9-6,0-6C3039.1,605.6,3039,611.7,3042.9,611.7L3042.9,611.7z"/>
			</g>
			<g>
				<path class="st0" d="M3200.6,706.6c3.9,0,3.9-6,0-6C3196.7,700.6,3196.7,706.6,3200.6,706.6L3200.6,706.6z"/>
			</g>
			<g>
				<path class="st0" d="M3050.1,887.5c3.9,0,3.9-6,0-6C3046.2,881.4,3046.2,887.5,3050.1,887.5L3050.1,887.5z"/>
			</g>
			<g>
				<path class="st0" d="M2410.5,898.2c3.9,0,3.9-6,0-6S2406.6,898.2,2410.5,898.2L2410.5,898.2z"/>
			</g>
		</g>
		<path class="st4" d="M3094.4,980.4c-5.8-8-14.8-13.2-23.6-17.7c-130.2-66.2-285.4-43.2-431-54.8c-37.3-3-75.1-8.5-108.7-25
			c-39.2-19.2-73.4-53.3-117-56c-30.6-1.9-71.2,7.8-84.4-19.9c-3.2-6.8-3.1-14.6-4-22.1c-13.4-101.9-206.6-72.3-225.5-71.4
			c-46.2,2.2-92.4,4.3-138.5,6.5c-45.7,53.5-85,112.7-116.7,176.2c43.4-0.4,86.8-0.7,130.3-1.1c21.4-0.2,43.2-0.4,63.7,5.9
			c27.9,8.5,51.3,28.4,79.1,37.1c21.4,6.7,44.2,6.6,66.7,6.5c81.1-0.6,162.3-1.3,243.4-1.9c15.3-0.1,31.1-0.2,45.3,5.4
			c14,5.5,25.4,15.9,38.1,24c41.8,26.8,94.4,27.3,143.2,36.6c15.5,3,32.5,8.2,39.9,22.1c12.3,23.2-11,49.7-34.6,61.2
			c-94.6,46.4-211,1.4-311.7,32.5c-26.9,8.3-51.9,21.9-78.1,32.2c-86,33.7-181.8,30.7-273.7,21.1c-77.8-8.2-155.9-20.8-233.8-18.7
			c-5.8,40.7-8.9,82.3-8.9,124.6c0,13.3,0.3,26.5,0.9,39.6c43.5,1,86.9,2,130.4,2.9c82.1,1.8,164.3,3.7,246.2-2.9
			c45.8-3.7,92.1-10.3,134.6-27.8c25.6-10.6,49.7-25,76-33.6c46.4-15.1,96.4-11.1,145.1-13.5c75.2-3.8,148.7-23.3,221.4-42.7
			c112.1-29.9,388.4-74.6,395.5-187.9C3105,1004.7,3102.1,991,3094.4,980.4z"/>
		<path class="st5" d="M2815,1306.9h-868.5c-9.5,0-17.2,7.7-17.2,17.2v29.6h903v-29.6C2832.3,1314.6,2824.5,1306.9,2815,1306.9z"/>
		<g>
			<path class="st6" d="M2252.2,824.5h-119.5v-87.7h57.7c3.2,0,5.8-2.6,5.8-5.8s-2.6-5.8-5.8-5.8h-276.5v-31.7
				c0-3.5-2.8-6.3-6.3-6.3l0,0c-3.5,0-6.4,2.8-6.4,6.3v31.7h-36.4c-3.2,0-5.8,2.6-5.8,5.8s2.6,5.8,5.8,5.8h36.4v306.7
				c0,3.5,2.8,6.3,6.4,6.3l0,0c3.5,0,6.3-2.8,6.3-6.3V736.8h213.6v87.7H2008c-2.4,0-4.3,1.9-4.3,4.3c0,2.4,1.9,4.3,4.3,4.3h10.8
				v95.5h1.4v-95.5h60.7v95.5h1.4v-95.5h45.3h5.2h43.7v95.5h1.4v-95.5h63.9v95.5h1.4v-95.5h9.2c2.4,0,4.3-1.9,4.3-4.3
				C2256.5,826.4,2254.6,824.5,2252.2,824.5z"/>
			<path class="st7" d="M2022,911.8l4.7,10.3c0.4,0.9,1.2,1.6,2.2,1.7l10.4,1.6c2.3,0.4,3.3,3.5,1.6,5.3l-7.6,8
				c-0.7,0.7-1,1.7-0.8,2.8l1.8,11.3c0.4,2.5-2.1,4.5-4.2,3.3l-9.3-5.3c-0.8-0.5-1.8-0.5-2.7,0l-9.3,5.3c-2.1,1.2-4.6-0.7-4.2-3.3
				l1.8-11.3c0.2-1-0.1-2-0.8-2.8l-7.6-8c-1.7-1.8-0.8-4.9,1.6-5.3l10.4-1.6c0.9-0.1,1.7-0.8,2.2-1.7l4.7-10.3
				C2017.9,909.5,2021,909.5,2022,911.8z"/>
			<path class="st5" d="M2179.6,911.8l4.7,10.3c0.4,0.9,1.2,1.6,2.2,1.7l10.4,1.6c2.3,0.4,3.3,3.5,1.6,5.3l-7.6,8
				c-0.7,0.7-1,1.7-0.8,2.8l1.8,11.3c0.4,2.5-2.1,4.5-4.2,3.3l-9.3-5.3c-0.8-0.5-1.8-0.5-2.7,0l-9.3,5.3c-2.1,1.2-4.6-0.7-4.2-3.3
				l1.8-11.3c0.2-1-0.1-2-0.8-2.8l-7.6-8c-1.7-1.8-0.8-4.9,1.6-5.3l10.4-1.6c0.9-0.1,1.7-0.8,2.2-1.7l4.7-10.3
				C2175.5,909.5,2178.5,909.5,2179.6,911.8z"/>
			<path class="st6" d="M2083.2,927.6l3.1,10.3c0.3,0.9,0.8,1.6,1.4,1.7l6.9,1.7c1.6,0.4,2.2,3.5,1,5.3l-5,8
				c-0.4,0.7-0.6,1.7-0.5,2.8l1.2,11.3c0.3,2.5-1.4,4.5-2.7,3.3l-6.2-5.3c-0.6-0.5-1.2-0.5-1.8,0l-6.2,5.3c-1.4,1.2-3-0.7-2.7-3.3
				l1.2-11.3c0.1-1-0.1-2-0.5-2.8l-5-8c-1.1-1.8-0.5-4.9,1-5.3l6.9-1.7c0.6-0.1,1.1-0.8,1.4-1.7l3.1-10.3
				C2080.5,925.2,2082.5,925.2,2083.2,927.6z"/>
			<path class="st7" d="M2244,927.6l3.1,10.3c0.3,0.9,0.8,1.6,1.4,1.7l6.9,1.7c1.6,0.4,2.2,3.5,1,5.3l-5,8c-0.4,0.7-0.6,1.7-0.5,2.8
				l1.2,11.3c0.3,2.5-1.4,4.5-2.7,3.3l-6.2-5.3c-0.6-0.5-1.2-0.5-1.8,0l-6.2,5.3c-1.4,1.2-3-0.7-2.7-3.3l1.2-11.3
				c0.1-1-0.1-2-0.5-2.8l-5-8c-1.1-1.8-0.5-4.9,1-5.3l6.9-1.7c0.6-0.1,1.1-0.8,1.4-1.7l3.1-10.3
				C2241.3,925.2,2243.3,925.2,2244,927.6z"/>
		</g>
		<path class="st8" d="M3436,1755.3H1802.9c-2.9,0-5.2-2.3-5.2-5.2v-17.9c0-2.9,2.3-5.2,5.2-5.2H3436c2.9,0,5.2,2.3,5.2,5.2v17.9
			C3441.2,1753,3438.8,1755.3,3436,1755.3z"/>
		<path class="st9" d="M2832.3,1033v41.5h-903v-20.7c0-11.5-9.3-20.7-20.8-20.7l0,0c-11.5,0-20.8,9.3-20.8,20.7v20.7v45v234.4v70.9
			v302.6h41.5v-302.6h903v302.6h41.5V1033H2832.3z M2292.5,1119.4h155.7v234.4h-155.7V1119.4z M2268.3,1353.8h-155.7v-234.4h155.7
			V1353.8z M2472.4,1119.4h155.7v234.4h-155.7V1119.4z M1929.3,1119.4h159.1v234.4h-159.1L1929.3,1119.4L1929.3,1119.4z
			 M2832.3,1353.8h-179.9v-234.4h179.9V1353.8z"/>
	</g>
	<g>
		<g>
			<path class="st10" d="M3060.6,1691.3c0,7.7-6.4,14-14.2,14h-131.9c-7.9,0-14.2-6.3-14.2-14v-117c0-7.7,6.4-14,14.2-14h131.9
				c7.9,0,14.2,6.3,14.2,14V1691.3z"/>
			<path class="st10" d="M3047.7,1681.9c0,6.5-5.3,11.7-11.9,11.7h-110.7c-6.6,0-11.9-5.3-11.9-11.7v-98.2c0-6.5,5.3-11.8,11.9-11.8
				h110.7c6.6,0,11.9,5.3,11.9,11.8V1681.9z"/>
			<path class="st10" d="M3047.4,1560.4c0.4,18.4,1.1,36.8,0.6,55.3c-0.6,21.8,0,48-22.1,60.8c-15.2,8.9-34.6,8.8-51.7,8.5
				c-24.9-0.4-48.9-1-73.9-1v7.3c0,7.7,6.4,14,14.2,14h131.9c7.9,0,14.2-6.3,14.2-14v-117
				C3060.6,1566.9,3054.8,1560.9,3047.4,1560.4z"/>
			<path class="st10" d="M2910.2,1588c0,0-1.5-21,14.8-19.6c16.4,1.5,26.2,2.9,38.4,0.7c12.2-2.2,7.6,16.7-10.7,19.2
				s-24.7,0-24.7,10.1C2928.1,1608.7,2909.4,1614.9,2910.2,1588z"/>
		</g>
		<g>
			<path class="st11" d="M3400.1,1692.5c0,8.1-7.1,14.7-15.8,14.7h-146.1c-8.7,0-15.8-6.6-15.8-14.7v-123.3
				c0-8.1,7.1-14.7,15.8-14.7h146.1c8.7,0,15.8,6.6,15.8,14.7V1692.5z"/>
			<path class="st12" d="M3385.5,1554.6c0.5,19.4,1.2,38.8,0.7,58.2c-0.6,22.9,0,50.5-24.5,64.1c-16.9,9.3-38.3,9.2-57.3,9
				c-27.6-0.4-54.2-1.1-81.9-1v7.7c0,8.1,7.1,14.7,15.8,14.7h146.1c8.7,0,15.8-6.6,15.8-14.7v-123.3
				C3400.1,1561.5,3393.7,1555.1,3385.5,1554.6z"/>
			<path class="st13" d="M3233.5,1583.7c0,0-1.7-22.1,16.4-20.6c18.1,1.5,29.1,3.1,42.6,0.8c13.5-2.3,8.4,17.6-11.8,20.2
				c-20.2,2.7-27.4,0-27.4,10.7C3253.3,1605.4,3232.6,1612,3233.5,1583.7z"/>
		</g>
		<g>
			<path class="st11" d="M3221.8,1690.8c0,7.7-6.4,14-14.2,14h-131.9c-7.9,0-14.2-6.3-14.2-14v-117c0-7.7,6.4-14,14.2-14h131.9
				c7.8,0,14.2,6.3,14.2,14V1690.8z"/>
			<path class="st12" d="M3208.6,1559.8c0.4,18.4,1.1,36.8,0.6,55.3c-0.6,21.8,0,48-22.1,60.8c-15.2,8.9-34.6,8.8-51.7,8.5
				c-24.9-0.4-48.9-1-73.9-1v7.3c0,7.7,6.4,14,14.2,14h131.9c7.8,0,14.2-6.3,14.2-14v-117C3221.8,1566.4,3216,1560.4,3208.6,1559.8z
				"/>
			<path class="st13" d="M3071.4,1587.8c0,0-1.5-20.7,14.8-19.3c16.4,1.4,26.2,2.9,38.4,0.7c12.2-2.1,7.6,16.4-10.7,18.9
				s-24.7,0-24.7,10C3089.3,1608.1,3070.7,1614.3,3071.4,1587.8z"/>
		</g>
		<g>
			<path class="st3" d="M3021.2,1261.4c0,7.7-6.4,14-14.2,14h-131.9c-7.9,0-14.2-6.3-14.2-14v-117c0-7.7,6.4-14,14.2-14H3007
				c7.8,0,14.2,6.3,14.2,14V1261.4z"/>
			<path class="st13" d="M2881.9,1177.6c0,0-1.5-21,14.8-19.6c16.4,1.4,26.3,2.9,38.4,0.7c12.2-2.2,7.6,16.7-10.7,19.2
				s-24.7,0-24.7,10.1C2899.8,1198.3,2881.1,1204.6,2881.9,1177.6z"/>
			<text transform="matrix(0.9841 0 0 1 2912.1973 1241.0283)" class="st14 st15">J</text>
			<path class="st16" d="M3008,1130.5c0.4,18.4,1.1,36.8,0.6,55.3c-0.6,21.8,0,48-22.1,60.8c-15.2,8.8-34.6,8.8-51.7,8.5
				c-25-0.4-49-1-73.9-1v7.3c0,7.7,6.4,14,14.2,14H3007c7.8,0,14.2-6.3,14.2-14v-117C3021.2,1137,3015.4,1131,3008,1130.5z"/>
			<path class="st17" d="M3072.1,1405.5c0,7.7-6.4,14-14.2,14H2926c-7.8,0-14.2-6.3-14.2-14v-117c0-7.7,6.4-14,14.2-14h131.9
				c7.9,0,14.2,6.3,14.2,14L3072.1,1405.5L3072.1,1405.5z"/>
			<path class="st0" d="M2918.7,1300c0,0-1.5-21,14.8-19.6c16.4,1.4,26.3,2.9,38.4,0.7c12.2-2.2,7.6,16.7-10.7,19.2
				s-24.7,0-24.7,10.1S2917.9,1327,2918.7,1300z"/>
			<path class="st18" d="M3058.9,1274.6c0.4,18.4,1.1,36.8,0.6,55.3c-0.6,21.8,0,48-22.1,60.8c-15.2,8.9-34.6,8.8-51.7,8.5
				c-25-0.4-49-1-73.9-1v7.3c0,7.7,6.4,14,14.2,14h131.9c7.9,0,14.2-6.3,14.2-14v-117C3072.1,1281.1,3066.3,1275.1,3058.9,1274.6z"
				/>
			<text transform="matrix(0.9526 0 0 1 2957.6006 1384.4932)" class="st14 st19">A</text>
			<path class="st20" d="M3017.5,1551.2c0,7.7-6.4,14-14.2,14h-131.9c-7.9,0-14.2-6.3-14.2-14v-117c0-7.7,6.4-14,14.2-14h131.9
				c7.9,0,14.2,6.3,14.2,14V1551.2z"/>
			<path class="st20" d="M3004.6,1541.8c0,6.5-5.3,11.7-11.9,11.7H2882c-6.6,0-11.9-5.3-11.9-11.7v-98.2c0-6.5,5.3-11.8,11.9-11.8
				h110.7c6.6,0,11.9,5.3,11.9,11.8L3004.6,1541.8L3004.6,1541.8z"/>
			<path class="st21" d="M3004.3,1420.2c0.4,18.4,1.1,36.8,0.6,55.3c-0.6,21.8,0,47.9-22.1,60.8c-15.2,8.9-34.6,8.8-51.7,8.5
				c-25-0.4-48.9-1-73.9-1v7.3c0,7.7,6.4,14,14.2,14h131.9c7.9,0,14.2-6.3,14.2-14v-117C3017.5,1426.8,3011.7,1420.7,3004.3,1420.2z
				"/>
			<path class="st20" d="M2867.1,1447.8c0,0-1.5-21,14.8-19.6c16.4,1.5,26.2,2.9,38.4,0.7c12.2-2.2,7.6,16.7-10.7,19.2
				s-24.7,0-24.7,10.1C2885,1468.5,2866.3,1474.8,2867.1,1447.8z"/>
			<text transform="matrix(0.9592 0 0 1 2907.3936 1537.4893)" class="st14 st22">L</text>
		</g>
		<text transform="matrix(0.9323 0 0 1 2946.2334 1669.4932)" class="st14 st23">E</text>
	</g>
	<g>
		<g>
			<path class="st10" d="M2677.9,1709.3c-8.5,0-15.4-6.1-15.4-13.5v-125.7c0-7.5,6.9-13.6,15.4-13.6h129c8.5,0,15.4,6.1,15.4,13.6
				v125.7c0,7.5-6.9,13.5-15.4,13.5H2677.9z"/>
			<path class="st10" d="M2688.2,1697c-7.2,0-13-5.1-13-11.4v-105.5c0-6.3,5.8-11.4,13-11.4h108.3c7.2,0,13,5.1,13,11.4v105.5
				c0,6.3-5.8,11.4-13,11.4H2688.2z"/>
			<path class="st10" d="M2822.2,1696.7c-20.3,0.4-40.6,1.1-60.9,0.6c-24-0.6-52.9,0-67-21.1c-9.8-14.5-9.7-33-9.4-49.3
				c0.4-23.8,1.1-46.6,1.1-70.4h-8.1c-8.5,0-15.4,6.1-15.4,13.6v125.7c0,7.5,6.9,13.5,15.4,13.5h129
				C2815.1,1709.3,2821.6,1703.7,2822.2,1696.7z"/>
			<path class="st24" d="M2791.8,1566.1c0,0,23.2-1.4,21.6,14.1c-1.6,15.5-3.2,24.9-0.8,36.5s-18.4,7.2-21.2-10.1
				c-2.8-17.4,0-23.5-11.2-23.5C2769.1,1583.1,2762.1,1565.4,2791.8,1566.1z"/>
		</g>
		<text transform="matrix(2.698479e-16 0.806 -1 2.396827e-16 2701.3242 1599.0679)" class="st14 st25">E</text>
	</g>
</g>
<text transform="matrix(0.9711 0 0 1 3105.9705 1669.4932)" class="st14 st26">S</text>
<text transform="matrix(0.9711 0 0 1 3277.4797 1670.8085)" class="st14 st26">S</text>
</svg>
