<?xml version="1.0" encoding="utf-8"?>
<!-- Generator: Adobe Illustrator 25.0.1, SVG Export Plug-In . SVG Version: 6.00 Build 0)  -->
<svg version="1.1" id="Layer_1" xmlns="http://www.w3.org/2000/svg" xmlns:xlink="http://www.w3.org/1999/xlink" x="0px" y="0px"
	 viewBox="0 0 1366 768" style="enable-background:new 0 0 1366 768;" xml:space="preserve">
<style type="text/css">
	.st0{fill:url(#SVGID_1_);}
	.st1{fill:url(#SVGID_2_);}
	.st2{fill:url(#SVGID_3_);}
	.st3{fill:url(#SVGID_4_);}
	.st4{fill:url(#SVGID_5_);}
	.st5{fill:#09316B;}
	.st6{fill:#4EB3FE;}
</style>
<g>
	
		<linearGradient id="SVGID_1_" gradientUnits="userSpaceOnUse" x1="603.4925" y1="500.7898" x2="641.2938" y2="500.7898" gradientTransform="matrix(1 0 0 -1 0 767.8898)">
		<stop  offset="0" style="stop-color:#5DF5FF"/>
		<stop  offset="0.5467" style="stop-color:#55D0FF"/>
		<stop  offset="1" style="stop-color:#4EAEFF"/>
	</linearGradient>
	<path class="st0" d="M630.6,227.5c0,0.3-0.1,0.5-0.1,0.8v37.3c0,13-4.2,21.6-10.1,26.9c-1.2,1-2.4,1.9-3.6,2.7
		c-3.5,5.8-8,10.8-13.2,14.8c5.3-0.2,10.2-1.3,14.5-3.2c0.9-0.4,1.7-0.8,2.5-1.3c12.8-7,20.7-21.4,20.7-39.9v-37.3
		c0-1.7-0.8-3.1-2-4.1C636.5,225.5,633.6,226.6,630.6,227.5z"/>
	
		<linearGradient id="SVGID_2_" gradientUnits="userSpaceOnUse" x1="562.3688" y1="483.2398" x2="579.8531" y2="483.2398" gradientTransform="matrix(1 0 0 -1 0 767.8898)">
		<stop  offset="0" style="stop-color:#5DF5FF"/>
		<stop  offset="0.5467" style="stop-color:#55D0FF"/>
		<stop  offset="1" style="stop-color:#4EAEFF"/>
	</linearGradient>
	<path class="st1" d="M575.7,283.8c-0.2-0.3-0.4-0.7-0.6-1c-0.6-1.2-1.2-2.4-1.7-3.6c-0.1-0.3-0.2-0.6-0.3-0.9
		c-2.1,1.3-4.6,2-7.3,2.1l-3.5,0.1c1.1,3.6,2.6,6.9,4.5,10c1.6,0.3,3.3,0.5,5,0.5c2.8,0,5.5-0.5,7.9-1.4c-0.7-0.7-1.3-1.5-1.9-2.3
		c-0.4-0.6-0.8-1.1-1.2-1.7C576.3,285,576,284.4,575.7,283.8z"/>
	
		<linearGradient id="SVGID_3_" gradientUnits="userSpaceOnUse" x1="604.7" y1="575.4274" x2="643.1588" y2="575.4274" gradientTransform="matrix(1 0 0 -1 0 767.8898)">
		<stop  offset="0" style="stop-color:#5DF5FF"/>
		<stop  offset="0.5467" style="stop-color:#55D0FF"/>
		<stop  offset="1" style="stop-color:#4EAEFF"/>
	</linearGradient>
	<path class="st2" d="M609,184c-2.4,0.5-4.2,2.7-4.2,5.2l-0.1,11.4c1.8,0.2,3.6,0.4,5.5,0.4c1.8,0,3.6-0.1,5.3-0.3v-5.9h16.3
		c4.4-2.8,8.2-6.4,11.3-10.8h-17.3h-15.7C609.8,183.9,609.4,183.9,609,184z"/>
	
		<linearGradient id="SVGID_4_" gradientUnits="userSpaceOnUse" x1="527.0964" y1="497.1898" x2="615.4963" y2="497.1898" gradientTransform="matrix(1 0 0 -1 0 767.8898)">
		<stop  offset="0" style="stop-color:#5DF5FF"/>
		<stop  offset="0.5467" style="stop-color:#55D0FF"/>
		<stop  offset="1" style="stop-color:#4EAEFF"/>
	</linearGradient>
	<path class="st3" d="M574.2,311.1c5.1-0.3,10-1.4,14.4-3.3c0.8-0.3,1.5-0.7,2.2-1c2.3-1.1,4.5-2.5,6.5-4c1.5-1.1,2.9-2.3,4.3-3.6
		l0,0c0.3-0.3,0.7-0.7,1-1c1.5-1.5,2.8-3.1,4.1-4.9c0.7-0.9,1.3-1.9,1.9-2.9c0.4-0.7,0.8-1.4,1.2-2.1c3.5-6.5,5.4-14,5.4-22l0.2-36
		c-1.7,0.1-3.5,0.2-5.2,0.2c-1.9,0-3.8-0.1-5.6-0.2l-0.2,36c0,8.8-3,16.7-8.1,22.7c-2.3,2.7-5,5-8.1,6.8c-3.9,2.3-8.3,3.8-13,4.3
		l0,0c-1.1,0.1-2.1,0.2-3.2,0.2c-3.8,0-7.4-0.6-10.8-1.8c-5.2-1.7-9.8-4.7-13.5-8.5c-4.8-4.9-8.1-11.3-9.2-18.4l12.7-0.3l5.1-0.1
		l4.3-0.1l5.2-0.1c0.2,0,0.4,0,0.7-0.1c1.5-0.2,2.8-1,3.6-2.2c0.7-0.9,1-2,1-3.2c0,0,0,0,0-0.1c0-0.2,0-0.3-0.1-0.5l0,0
		c0-0.2,0-0.3-0.1-0.5l0,0c0-0.2-0.1-0.4-0.2-0.5l0,0c0-0.1,0-0.1-0.1-0.2c0-0.1-0.1-0.2-0.1-0.3c-0.1-0.2-0.2-0.3-0.3-0.5l0,0l0,0
		c0,0,0-0.1-0.1-0.1c-0.1-0.1-0.1-0.2-0.2-0.3l0,0c-0.1-0.1-0.2-0.3-0.3-0.4l0,0l0,0c-0.1-0.1-0.2-0.2-0.3-0.4
		c-0.1-0.1-0.2-0.1-0.2-0.2c-0.1-0.1-0.1-0.1-0.2-0.2l0,0c-0.1-0.1-0.2-0.2-0.4-0.3l0,0c-0.1-0.1-0.2-0.1-0.4-0.2
		c-0.1,0-0.1-0.1-0.2-0.1c-0.1-0.1-0.3-0.2-0.4-0.2c-0.2-0.1-0.4-0.1-0.7-0.2c-0.1,0-0.2-0.1-0.3-0.1c-0.3-0.1-0.7-0.1-1.1-0.1l0,0
		l0,0l0,0l0,0c0,0,0,0-0.1,0l-13.7,0.3l-3,0.1l-16.3,0.3c-2.9,0.1-5.3,2.5-5.3,5.4c0,24.7,20.1,44.8,44.8,44.8
		C572.7,311.1,573.4,311.1,574.2,311.1z"/>
	
		<linearGradient id="SVGID_5_" gradientUnits="userSpaceOnUse" x1="557.6966" y1="565.3899" x2="662.6946" y2="565.3899" gradientTransform="matrix(1 0 0 -1 0 767.8898)">
		<stop  offset="0" style="stop-color:#5DF5FF"/>
		<stop  offset="0.5467" style="stop-color:#55D0FF"/>
		<stop  offset="1" style="stop-color:#4EAEFF"/>
	</linearGradient>
	<path class="st4" d="M661.9,192.1c0.1-0.1,0.1-0.2,0.1-0.3l0,0l0,0c0.1-0.2,0.2-0.4,0.3-0.5l0,0c0.1-0.2,0.1-0.3,0.2-0.5l0,0
		c0-0.2,0.1-0.3,0.1-0.5c0,0,0-0.1,0-0.2c0-0.1,0-0.3,0-0.5l0,0l0,0c0-0.2,0-0.3,0-0.5l0,0l0,0c0-0.2,0-0.4-0.1-0.6l0,0l0,0
		c0-0.1,0-0.2-0.1-0.4V188l0,0c0-0.2-0.1-0.3-0.2-0.5l0,0l0,0c-0.1-0.2-0.1-0.3-0.2-0.5l0,0l0,0c-0.1-0.2-0.2-0.3-0.2-0.5l0,0l0,0
		c-0.1-0.1-0.1-0.2-0.2-0.4c0,0,0-0.1-0.1-0.1c0,0,0-0.1-0.1-0.1c-0.1-0.1-0.2-0.2-0.3-0.3l0,0l0,0c0,0,0,0-0.1-0.1
		s-0.2-0.2-0.3-0.3l0,0c-0.1-0.1-0.2-0.2-0.4-0.3l0,0c-0.2-0.1-0.3-0.3-0.5-0.4l0,0c0,0-0.1,0-0.1-0.1c-0.1-0.1-0.2-0.1-0.3-0.1l0,0
		c-0.1-0.1-0.2-0.1-0.4-0.2h-0.1c0,0,0,0-0.1,0l0,0c-0.1,0-0.2-0.1-0.2-0.1c-0.1,0-0.2,0-0.2-0.1l0,0c-0.1,0-0.2-0.1-0.3-0.1
		s-0.2,0-0.2,0l0,0l0,0c0,0,0,0-0.1,0h-0.1c-0.1,0-0.3,0-0.4,0l0,0c-0.1,0-0.2,0-0.4,0l0,0c-0.1,0-0.1,0-0.2,0c-0.1,0-0.1,0-0.2,0
		c-0.3,0-0.5,0.1-0.8,0.1h-0.1c-0.3,0.1-0.6,0.2-0.9,0.3c-0.1,0-0.1,0.1-0.2,0.1c-0.3,0.1-0.5,0.3-0.8,0.4c0,0,0,0-0.1,0
		c-0.3,0.2-0.5,0.4-0.7,0.6c-0.1,0.1-0.1,0.1-0.2,0.2c-0.2,0.2-0.4,0.5-0.6,0.8l0,0c-0.5,0.9-1.1,1.8-1.7,2.6c0,0,0,0.1-0.1,0.1
		c-1,1.5-2.1,2.9-3.3,4.2c-0.4,0.4-0.8,0.9-1.2,1.3l0,0c-0.6,0.6-1.2,1.2-1.8,1.8c-0.1,0.1-0.2,0.1-0.2,0.2c-3,2.9-6.3,5.3-9.9,7.3
		c-3,1.7-6.3,3.1-9.6,4.1c-3,0.9-6.2,1.6-9.4,1.9c-1.7,0.2-3.5,0.3-5.3,0.3c-1.9,0-3.7-0.1-5.5-0.3c-3.2-0.4-6.3-1-9.3-1.9
		c-7.3-2.3-14-6.2-19.6-11.6c-2.3-2.2-4.4-4.7-6.2-7.3c-0.6-0.9-1.2-1.8-1.8-2.7l0,0c-0.2-0.3-0.4-0.5-0.6-0.8
		c-0.1-0.1-0.1-0.1-0.2-0.2c-0.2-0.2-0.5-0.4-0.7-0.6c0,0,0,0-0.1,0c-0.2-0.2-0.5-0.3-0.8-0.4c-0.1,0-0.1-0.1-0.2-0.1
		c-0.3-0.1-0.6-0.2-0.9-0.3h-0.1c-0.3-0.1-0.5-0.1-0.8-0.1c-0.1,0-0.1,0-0.2,0c-0.3,0-0.6,0-0.9,0h-0.1c-0.3,0-0.5,0.1-0.8,0.2
		c-0.1,0-0.2,0.1-0.2,0.1c-0.3,0.1-0.6,0.2-0.9,0.4l0,0c-0.1,0.1-0.2,0.2-0.4,0.3c-2.2,1.6-2.9,4.7-1.4,7.2c2.4,4,5.2,7.6,8.4,10.9
		c3.1,3.2,6.6,6.1,10.4,8.5c3.7,2.4,7.7,4.4,11.9,6c2,0.7,4,1.4,6.1,1.9c3,0.8,6.2,1.3,9.4,1.6c1.8,0.2,3.7,0.3,5.6,0.3
		c1.2,0,2.5,0,3.7-0.1c0.3,0,0.5,0,0.8-0.1c0.3,0,0.5,0,0.8-0.1c2.6-0.2,5.1-0.6,7.6-1.1c0.3-0.1,0.7-0.1,1-0.2
		c0.3-0.1,0.5-0.1,0.8-0.2c5-1.2,9.7-3.1,14.2-5.5c4.9-2.6,9.4-6,13.4-9.9C656,200.5,659.2,196.5,661.9,192.1z"/>
</g>
<g>
	<path class="st5" d="M555.4,321.8v1c-0.3,0.1-0.6,0.1-0.8,0.2c-1.6,0.3-2.5,0.5-2.7,0.7s-0.4,0.6-0.4,1.2c-0.1,0.6-0.1,3.8-0.1,9.8
		c0,3.2,0,5.1-0.1,5.7c-0.1,1.3-0.5,2.5-1,3.3c-0.5,0.9-1.3,1.6-2.3,2.1s-2.1,0.8-3.3,0.8c-0.9,0-2.1-0.2-3.5-0.5
		c0.2-1.8,0.3-3.9,0.3-6.1h1.4c0.1,1.9,0.4,3.2,1,3.9c0.5,0.7,1.2,1,2,1c1,0,1.7-0.5,2-1.6c0.2-0.6,0.3-3.8,0.3-9.5s0-8.7-0.1-9.1
		c0-0.4-0.1-0.7-0.3-0.9c-0.3-0.2-1.2-0.5-2.7-0.7c-0.2,0-0.5-0.1-0.9-0.2v-1c2.5,0.1,4.4,0.2,5.8,0.2
		C551.5,322,553.3,322,555.4,321.8z"/>
	<path class="st5" d="M559.1,334.5l-1.1-0.1c0.2-1.2,0.4-2.4,0.5-3.5c2.2-1,4.2-1.5,6-1.5c0.8,0,1.5,0.1,2.1,0.3
		c0.6,0.2,1.1,0.5,1.5,0.9s0.6,0.9,0.8,1.4s0.3,1.4,0.3,2.6l-0.2,7.1c0,1,0.1,1.6,0.3,1.9s0.5,0.4,0.8,0.4c0.4,0,1.1-0.3,1.9-0.9
		l0.5,0.7c-1.6,1.4-2.5,2.2-2.6,2.3c-0.3,0.2-0.7,0.3-1.2,0.3c-0.7,0-1.3-0.2-1.7-0.6s-0.7-1-0.8-1.9c-1.4,1.1-2.4,1.7-3,2
		c-0.7,0.3-1.4,0.4-2.2,0.4c-1.3,0-2.3-0.4-3.1-1.2c-0.8-0.8-1.2-1.8-1.2-2.9c0-0.7,0.1-1.4,0.4-2c0.3-0.6,0.7-1.1,1.2-1.5
		c0.4-0.3,1.1-0.7,2-1.2c2.2-1.1,4.2-2,5.8-2.6c-0.1-1.6-0.3-2.7-0.8-3.2s-1.2-0.8-2.2-0.8c-0.9,0-1.7,0.3-2.4,0.9
		C560.3,332.3,559.7,333.2,559.1,334.5z M566.3,336.4c-3,1.3-4.8,2.3-5.4,2.9c-0.6,0.6-0.9,1.3-0.9,2.2s0.2,1.5,0.7,2.1
		c0.5,0.5,1,0.8,1.6,0.8s1.4-0.2,2.1-0.6c0.8-0.4,1.3-0.9,1.5-1.4s0.4-1.5,0.4-2.9L566.3,336.4L566.3,336.4z"/>
	<path class="st5" d="M573.3,324.2v-1c2-0.6,3.9-1.4,5.5-2.2l0.5,0.3c-0.3,2.1-0.4,6.1-0.4,11.9c0,5.9,0,9.1,0.1,9.8
		c0,0.6,0.2,1,0.4,1.2s1,0.5,2.5,0.9v1c-1.8-0.1-3.3-0.2-4.3-0.2c-1.1,0-2.5,0.1-4.2,0.2v-1c1.5-0.5,2.4-0.8,2.5-0.9s0.2-0.5,0.3-1
		c0-0.7,0.1-3.8,0.1-9.4v-8.1v-0.2c0-0.6-0.1-1-0.3-1.2s-0.4-0.3-0.8-0.3C574.8,323.9,574.2,324,573.3,324.2z"/>
	<path class="st5" d="M596.8,341.9l0.6,1l-3.4,2.5c-0.5,0.3-1,0.6-1.5,0.7c-0.7,0.2-1.5,0.3-2.2,0.3c-1.9,0-3.4-0.7-4.8-2.2
		c-1.3-1.5-2-3.5-2-6c0-2.7,0.8-4.9,2.4-6.6c1.6-1.7,3.5-2.5,5.8-2.5c1.8,0,3.1,0.5,4.1,1.5s1.5,2.5,1.5,4.5c-0.5,0.3-0.9,0.6-1.3,1
		c-0.8,0-1.3,0-1.5,0c-3,0-5.6,0-7.9,0.1c0,2.6,0.4,4.5,1.3,5.8c0.9,1.3,2.1,2,3.5,2c0.7,0,1.5-0.1,2.3-0.4
		C594.5,343.2,595.5,342.7,596.8,341.9z M594.3,334.5c-0.1-1.1-0.3-2-0.8-2.6c-0.6-0.9-1.5-1.3-2.6-1.3c-0.9,0-1.8,0.3-2.5,1
		s-1.3,1.7-1.6,3.2c0.4,0,0.7,0,1,0C589.6,334.8,591.8,334.7,594.3,334.5z"/>
	<path class="st5" d="M612.8,341.9l0.6,1l-3.4,2.5c-0.5,0.3-1,0.6-1.5,0.7c-0.7,0.2-1.5,0.3-2.2,0.3c-1.9,0-3.4-0.7-4.8-2.2
		c-1.3-1.5-2-3.5-2-6c0-2.7,0.8-4.9,2.4-6.6c1.6-1.7,3.5-2.5,5.8-2.5c1.8,0,3.1,0.5,4.1,1.5s1.5,2.5,1.5,4.5c-0.5,0.3-0.9,0.6-1.3,1
		c-0.8,0-1.3,0-1.5,0c-3,0-5.6,0-7.9,0.1c0,2.6,0.4,4.5,1.3,5.8c0.9,1.3,2.1,2,3.5,2c0.7,0,1.5-0.1,2.3-0.4
		C610.6,343.2,611.6,342.7,612.8,341.9z M610.3,334.5c-0.1-1.1-0.3-2-0.8-2.6c-0.6-0.9-1.5-1.3-2.6-1.3c-0.9,0-1.8,0.3-2.5,1
		s-1.3,1.7-1.6,3.2c0.4,0,0.7,0,1,0C605.7,334.8,607.8,334.7,610.3,334.5z"/>
	<path class="st5" d="M625.6,334l-1.2-0.1c-0.1-1-0.4-1.8-1.1-2.4c-0.6-0.6-1.4-0.9-2.4-0.9c-0.8,0-1.5,0.2-2,0.7
		c-0.5,0.4-0.7,0.9-0.7,1.5c0,0.5,0.2,1,0.6,1.4c0.5,0.6,1.7,1.3,3.4,2.2c1.7,0.9,2.9,1.7,3.5,2.4c0.6,0.8,0.9,1.6,0.9,2.6
		c0,1.4-0.6,2.6-1.7,3.6c-1.1,1-2.6,1.5-4.6,1.5c-1.4,0-3-0.3-4.6-0.9c0.2-1.6,0.3-3.1,0.3-4.4h1.2c0.3,1.3,0.8,2.3,1.5,2.9
		s1.5,0.9,2.5,0.9c0.9,0,1.6-0.2,2.1-0.7s0.7-1,0.7-1.7s-0.2-1.3-0.7-1.9s-1.6-1.3-3.3-2.1c-1.7-0.8-2.8-1.6-3.4-2.3
		c-0.6-0.7-0.9-1.5-0.9-2.3c0-1.2,0.6-2.3,1.7-3.3c1.1-1,2.6-1.5,4.4-1.5c1.3,0,2.7,0.3,4.2,0.9C625.9,331,625.8,332.3,625.6,334z"
		/>
	<path class="st5" d="M639.1,334l-1.2-0.1c-0.1-1-0.4-1.8-1.1-2.4c-0.6-0.6-1.4-0.9-2.4-0.9c-0.8,0-1.5,0.2-2,0.7
		c-0.5,0.4-0.7,0.9-0.7,1.5c0,0.5,0.2,1,0.6,1.4c0.5,0.6,1.7,1.3,3.4,2.2c1.7,0.9,2.9,1.7,3.5,2.4c0.6,0.8,0.9,1.6,0.9,2.6
		c0,1.4-0.6,2.6-1.7,3.6c-1.1,1-2.6,1.5-4.6,1.5c-1.4,0-3-0.3-4.6-0.9c0.2-1.6,0.3-3.1,0.3-4.4h1.2c0.3,1.3,0.8,2.3,1.5,2.9
		s1.5,0.9,2.5,0.9c0.9,0,1.6-0.2,2.1-0.7s0.7-1,0.7-1.7s-0.2-1.3-0.7-1.9s-1.6-1.3-3.3-2.1c-1.7-0.8-2.8-1.6-3.4-2.3
		c-0.6-0.7-0.9-1.5-0.9-2.3c0-1.2,0.6-2.3,1.7-3.3c1.1-1,2.6-1.5,4.4-1.5c1.3,0,2.7,0.3,4.2,0.9C639.4,331,639.3,332.3,639.1,334z"
		/>
</g>
<g>
	<path class="st6" d="M463.4,367.2v-0.5c1.3,0.1,2.7,0.1,4.3,0.1c1.6,0,3.4,0,5.4-0.1l0.2,3.1h-0.6c-0.2-0.9-0.4-1.4-0.5-1.7
		c-0.1-0.2-0.2-0.3-0.4-0.4c-0.2-0.1-0.5-0.1-1.1-0.1H467c0,0.7-0.1,2.1-0.1,4.2h2.3c0.4,0,0.7,0,0.9-0.1s0.2-0.1,0.3-0.3
		s0.2-0.5,0.3-1c0-0.1,0-0.2,0.1-0.4h0.5c0,1.2-0.1,1.9-0.1,2.3c0,0.1,0,0.8,0.1,2.1h-0.5c0-0.2,0-0.3-0.1-0.3
		c-0.1-0.7-0.2-1.1-0.4-1.3s-0.5-0.2-1.1-0.2h-2.3c0,0.6,0,0.9,0,1.1c0,2.2,0,3.4,0,3.6c0,0.1,0.1,0.2,0.2,0.2
		c0.1,0.1,0.8,0.2,1.9,0.4v0.5c-1.2-0.1-2.1-0.1-2.7-0.1l-2.9,0.1V378c0.2,0,0.4-0.1,0.5-0.1c0.7-0.1,1.1-0.2,1.2-0.3
		s0.2-0.4,0.2-0.8v-2.4c0-0.4,0-1.1,0-2.1c0-2.5,0-3.9,0-4.2c0-0.2-0.1-0.4-0.2-0.4c-0.1-0.1-0.6-0.2-1.3-0.4
		C463.8,367.3,463.6,367.3,463.4,367.2z"/>
	<path class="st6" d="M474.4,374.6c0-1.3,0.4-2.4,1.1-3.2c0.8-0.8,1.8-1.2,3-1.2s2.1,0.4,2.8,1.1s1,1.7,1,2.9c0,1.4-0.4,2.4-1.2,3.2
		c-0.8,0.8-1.8,1.2-3,1.2s-2.1-0.4-2.8-1.1C474.7,376.9,474.4,375.9,474.4,374.6z M475.9,373.9c0,0.9,0.1,1.6,0.2,2
		c0.2,0.7,0.5,1.2,0.9,1.6s0.9,0.5,1.4,0.5c0.7,0,1.2-0.3,1.7-0.8c0.4-0.5,0.7-1.3,0.7-2.5c0-1.3-0.2-2.2-0.7-2.9
		c-0.5-0.6-1.1-0.9-1.8-0.9c-0.7,0-1.2,0.2-1.6,0.7C476.2,372.2,475.9,372.9,475.9,373.9z"/>
	<path class="st6" d="M483.2,371.9v-0.5c1-0.3,1.9-0.6,2.6-1.1l0.2,0.2c-0.1,0.5-0.1,1.1-0.2,1.8c0.7-0.8,1.1-1.3,1.4-1.5
		s0.6-0.3,0.9-0.3c0.2,0,0.5,0.1,0.8,0.2c-0.1,0.6-0.2,1.1-0.3,1.7h-0.4c0-0.3-0.1-0.5-0.2-0.6s-0.2-0.2-0.4-0.2
		c-0.2,0-0.5,0.1-0.7,0.3c-0.4,0.3-0.6,0.7-0.8,1c-0.2,0.4-0.3,1-0.3,1.7c0,1.3,0,2.1,0.1,2.6c0,0.2,0.1,0.3,0.2,0.4
		s0.5,0.2,1.2,0.4v0.5c-0.7-0.1-1.3-0.1-1.9-0.1c-0.5,0-1.2,0-2.3,0.1V378c0.8-0.2,1.2-0.3,1.3-0.4c0.1-0.1,0.1-0.4,0.1-0.8V375
		c0-1.8,0-2.7,0-2.8c-0.1-0.2-0.2-0.3-0.5-0.3c-0.1,0-0.4,0-0.7,0.1C483.4,371.9,483.3,371.9,483.2,371.9z"/>
	<path class="st6" d="M493.4,371v-0.5c0.9,0.1,1.5,0.1,1.9,0.1c0.3,0,0.9,0,1.9-0.1v0.5c-0.5,0.1-0.8,0.2-0.9,0.3
		c-0.1,0.1-0.1,0.1-0.1,0.2s0.1,0.4,0.3,0.8c0.6,1.5,1.2,2.8,1.7,4l0.9-2.5c0.5-1.3,0.7-2.1,0.7-2.3c0-0.1,0-0.2-0.1-0.2
		c-0.1-0.1-0.2-0.1-0.4-0.2c-0.1,0-0.1,0-0.2-0.1v-0.5c0.7,0.1,1.2,0.1,1.5,0.1c0.4,0,0.8,0,1.3-0.1v0.5c-0.4,0.1-0.7,0.2-0.9,0.4
		c-0.1,0.2-0.4,0.8-0.9,1.9l-1.6,4.3c-0.5,1.3-0.8,2.2-1.1,2.7c-0.3,0.6-0.7,1-1.1,1.3s-0.8,0.4-1.2,0.4c-0.2,0-0.4,0-0.8-0.1
		c-0.1-0.3-0.2-0.6-0.2-0.7s-0.2-0.4-0.3-0.7l0.3-0.2c0.4,0.4,0.8,0.6,1.2,0.6c0.4,0,0.7-0.1,1-0.4c0.4-0.4,0.7-1.1,1-2.1l-1.6-3.7
		c-0.5-1.2-0.9-2.1-1.3-2.8c-0.1-0.2-0.2-0.4-0.3-0.4C494.1,371.3,493.8,371.1,493.4,371z"/>
	<path class="st6" d="M502.6,374.6c0-1.3,0.4-2.4,1.1-3.2c0.8-0.8,1.8-1.2,3-1.2s2.1,0.4,2.8,1.1s1,1.7,1,2.9c0,1.4-0.4,2.4-1.2,3.2
		c-0.8,0.8-1.8,1.2-3,1.2s-2.1-0.4-2.8-1.1C502.9,376.9,502.6,375.9,502.6,374.6z M504.2,373.9c0,0.9,0.1,1.6,0.2,2
		c0.2,0.7,0.5,1.2,0.9,1.6s0.9,0.5,1.4,0.5c0.7,0,1.2-0.3,1.7-0.8c0.4-0.5,0.7-1.3,0.7-2.5c0-1.3-0.2-2.2-0.7-2.9
		c-0.5-0.6-1.1-0.9-1.8-0.9c-0.7,0-1.2,0.2-1.6,0.7C504.4,372.2,504.2,372.9,504.2,373.9z"/>
	<path class="st6" d="M511.2,371.4v-0.5c1-0.1,1.9-0.2,2.8-0.4l0.2,0.2c-0.1,1-0.2,2.1-0.2,3.5c0,1.2,0,1.9,0.1,2.3
		c0.1,0.3,0.2,0.6,0.5,0.8s0.5,0.3,0.9,0.3s0.8-0.1,1.1-0.3c0.4-0.2,0.6-0.5,0.7-0.8s0.2-0.8,0.2-1.5c0-0.1,0-1,0-2.8
		c0-0.2-0.1-0.4-0.2-0.5c-0.1-0.1-0.4-0.1-0.9-0.2h-0.3V371c1.2-0.1,2.1-0.2,2.8-0.4l0.2,0.2c0,0.5-0.1,1-0.1,1.7s0,1.5,0,2.4
		c0,1.2,0,1.8,0.1,2.1s0.2,0.3,0.5,0.3c0.1,0,0.4,0,0.9-0.1v0.5c-0.6,0.1-1,0.3-1.4,0.5s-0.8,0.4-1.2,0.6l-0.2-0.2
		c0.1-0.4,0.1-0.8,0.1-1.2c-0.7,0.6-1.1,1-1.5,1.2s-0.7,0.2-1.1,0.2c-0.8,0-1.3-0.2-1.7-0.6s-0.6-0.9-0.6-1.7v-2.9
		c0-1-0.1-1.6-0.2-1.8c-0.1-0.2-0.5-0.3-1-0.3C511.4,371.4,511.3,371.4,511.2,371.4z"/>
	<path class="st6" d="M520.8,371.9v-0.5c1-0.3,1.9-0.6,2.6-1.1l0.2,0.2c-0.1,0.5-0.1,1.1-0.2,1.8c0.7-0.8,1.1-1.3,1.4-1.5
		s0.6-0.3,0.9-0.3c0.2,0,0.5,0.1,0.8,0.2c-0.1,0.6-0.2,1.1-0.3,1.7h-0.4c0-0.3-0.1-0.5-0.2-0.6c-0.1-0.1-0.2-0.2-0.4-0.2
		s-0.5,0.1-0.7,0.3c-0.4,0.3-0.6,0.7-0.8,1c-0.2,0.4-0.3,1-0.3,1.7c0,1.3,0,2.1,0.1,2.6c0,0.2,0.1,0.3,0.2,0.4
		c0.1,0.1,0.5,0.2,1.2,0.4v0.5c-0.7-0.1-1.3-0.1-1.9-0.1c-0.5,0-1.2,0-2.3,0.1V378c0.8-0.2,1.2-0.3,1.3-0.4s0.1-0.4,0.1-0.8V375
		c0-1.8,0-2.7,0-2.8c-0.1-0.2-0.2-0.3-0.5-0.3c-0.1,0-0.4,0-0.7,0.1C521,371.9,520.9,371.9,520.8,371.9z"/>
	<path class="st6" d="M537.7,373.2h-0.6c0-0.7-0.2-1.2-0.5-1.6c-0.3-0.3-0.8-0.5-1.3-0.5c-0.4,0-0.8,0.1-1.2,0.3
		c-0.4,0.2-0.7,0.6-0.9,1.1s-0.3,1.1-0.3,1.7c0,1,0.3,1.8,0.8,2.4s1.1,0.9,1.7,0.9c0.7,0,1.5-0.3,2.5-0.8l0.3,0.5
		c-0.9,0.6-1.6,1.1-2.2,1.4c-0.3,0.1-0.6,0.2-1,0.2c-1,0-1.8-0.3-2.3-0.8c-0.8-0.7-1.2-1.8-1.2-3c0-1.3,0.4-2.4,1.2-3.3
		s1.9-1.3,3.1-1.3c0.8,0,1.6,0.2,2.4,0.6c0,0.2-0.1,0.4-0.2,0.7C537.9,372.1,537.8,372.6,537.7,373.2z"/>
	<path class="st6" d="M538.7,367.8v-0.5c0.7-0.2,1.3-0.4,1.6-0.5s0.7-0.3,1-0.5l0.2,0.1c0,0.4-0.1,1-0.1,1.7c0,1.5-0.1,2.5-0.1,3.1
		c0,0.2,0,0.4,0,0.8l1.1-1.1c0.2-0.2,0.4-0.3,0.7-0.4s0.6-0.2,1-0.2c0.6,0,1.1,0.2,1.5,0.5s0.6,0.8,0.7,1.3c0,0.3,0,1.9,0,4.6
		c0,0.4,0,0.7,0.1,0.8c0.1,0.1,0.4,0.2,0.9,0.3c0.1,0,0.1,0,0.3,0.1v0.5c-1-0.1-1.7-0.1-2.1-0.1c-0.5,0-1.2,0-1.9,0.1v-0.5l1-0.3
		c0.1,0,0.1-0.1,0.2-0.1c0-0.1,0.1-0.2,0.1-0.3c0-0.1,0-0.4,0-0.9l0.1-2.4c0-0.8,0-1.3-0.1-1.6c-0.1-0.3-0.3-0.5-0.5-0.6
		c-0.2-0.2-0.5-0.2-0.8-0.2c-0.4,0-0.8,0.1-1.2,0.4c-0.4,0.2-0.6,0.6-0.8,0.9c-0.1,0.4-0.2,1-0.2,1.9c0,1.3,0,2.1,0.1,2.4
		c0,0.2,0.1,0.4,0.2,0.5c0.1,0.1,0.4,0.2,0.9,0.3c0.1,0,0.2,0,0.3,0.1v0.5c-0.8-0.1-1.5-0.1-2-0.1s-1.2,0-2,0.1V378
		c0.1,0,0.2-0.1,0.3-0.1c0.5-0.1,0.8-0.2,0.9-0.3c0.1-0.1,0.1-0.3,0.1-0.7c0-0.7,0-2,0-4c0-3.1,0-4.7-0.1-4.9s-0.2-0.3-0.5-0.3
		C539.4,367.8,539.1,367.8,538.7,367.8z"/>
	<path class="st6" d="M548.4,371.8v-0.5c0.9-0.2,1.8-0.6,2.6-1.1l0.2,0.2c-0.1,1.2-0.2,2.8-0.2,5c0,1,0,1.6,0.1,1.9
		c0,0.2,0.1,0.3,0.2,0.3c0.1,0.1,0.4,0.2,0.9,0.3c0.1,0,0.2,0,0.3,0.1v0.5c-0.7-0.1-1.3-0.1-1.8-0.1c-0.3,0-1,0-2.3,0.1V378
		c0.7-0.2,1.2-0.4,1.3-0.5c0.1-0.2,0.1-0.9,0.1-2.4v-1.8V373c0-0.6,0-1-0.1-1.1s-0.2-0.2-0.4-0.2
		C549.1,371.7,548.8,371.8,548.4,371.8z M550.4,366.3c0.2,0,0.4,0.1,0.6,0.3c0.2,0.2,0.3,0.4,0.3,0.6s-0.1,0.4-0.3,0.6
		s-0.4,0.3-0.6,0.3c-0.2,0-0.4-0.1-0.6-0.3c-0.2-0.2-0.3-0.4-0.3-0.6s0.1-0.4,0.3-0.6C550,366.4,550.2,366.3,550.4,366.3z"/>
	<path class="st6" d="M552.9,367.9v-0.5c1-0.3,1.9-0.7,2.7-1.1l0.2,0.1c-0.1,1-0.2,3-0.2,5.8c0,2.9,0,4.4,0,4.7
		c0,0.3,0.1,0.5,0.2,0.6c0.1,0.1,0.5,0.2,1.2,0.4v0.5c-0.9-0.1-1.6-0.1-2.1-0.1s-1.2,0-2,0.1v-0.5c0.7-0.2,1.2-0.4,1.2-0.4
		c0.1-0.1,0.1-0.2,0.1-0.5s0-1.9,0-4.6v-3.9v-0.1c0-0.3,0-0.5-0.1-0.6s-0.2-0.1-0.4-0.1C553.6,367.8,553.3,367.8,552.9,367.9z"/>
	<path class="st6" d="M562.2,367.9v-0.5c0.6-0.2,1-0.3,1.3-0.4s0.7-0.3,1.4-0.7l0.2,0.2c-0.1,1.3-0.2,3.7-0.2,7.2c0,1.9,0,3,0.1,3.2
		s0.2,0.3,0.5,0.3c0.2,0,0.5,0,0.9-0.1v0.4c-1.2,0.3-2.1,0.7-2.7,1.1l-0.2-0.2c0.1-0.4,0.1-0.8,0.1-1.2c-0.7,0.6-1.2,1-1.5,1.2
		s-0.7,0.2-1.2,0.2c-0.8,0-1.5-0.3-2.1-1c-0.6-0.6-0.8-1.5-0.8-2.7c0-0.8,0.1-1.5,0.4-2.1c0.2-0.4,0.5-0.9,0.9-1.3s0.8-0.7,1.3-0.9
		c0.5-0.2,1-0.4,1.4-0.4c0.2,0,0.5,0,0.7,0.1s0.6,0.1,0.9,0.2c0-0.3,0-0.4,0-0.5c0-1.3,0-2-0.1-2.2s-0.2-0.3-0.5-0.3
		c-0.1,0-0.3,0-0.5,0.1C562.4,367.8,562.3,367.8,562.2,367.9z M563.6,374.3c0-1.1,0-1.7-0.1-1.9c-0.1-0.3-0.3-0.6-0.7-0.8
		c-0.3-0.2-0.8-0.3-1.3-0.3c-0.6,0-1.2,0.3-1.6,0.8c-0.4,0.5-0.7,1.3-0.7,2.3s0.2,1.8,0.7,2.4c0.4,0.5,1,0.8,1.6,0.8
		c0.4,0,0.8-0.1,1.1-0.4s0.6-0.5,0.7-0.9S563.6,375.3,563.6,374.3z"/>
	<path class="st6" d="M579.3,371.4v-0.5c0.8,0.1,1.4,0.1,2,0.1s1.2,0,1.8-0.1v0.5c-0.6,0.1-1.1,0.3-1.3,0.5s-0.7,0.8-1.2,1.9
		c-0.4,0.7-0.9,1.5-1.4,2.1c0.5,0.5,1,0.9,1.3,1.1s0.7,0.3,1,0.3s0.6-0.1,0.9-0.2c0.3-0.1,0.7-0.3,1.2-0.6l0.4,0.5
		c-0.9,0.8-1.6,1.3-1.9,1.5s-0.7,0.3-0.9,0.3c-0.9,0-1.8-0.5-2.9-1.6c-0.6,0.6-1.2,1-1.8,1.2c-0.6,0.3-1.2,0.4-1.9,0.4
		c-0.9,0-1.6-0.3-2.2-0.8s-0.8-1.2-0.8-2.1c0-0.7,0.2-1.3,0.7-1.9s1.4-1.3,2.8-2c-0.3-0.6-0.5-1.1-0.6-1.5s-0.2-0.8-0.2-1.2
		c0-0.7,0.3-1.3,0.9-1.8c0.6-0.5,1.4-0.8,2.3-0.8c0.7,0,1.2,0.2,1.5,0.5s0.6,0.8,0.6,1.4c0,1.3-1,2.4-2.9,3.3
		c0.3,0.6,0.6,1.2,0.9,1.7c0.3,0.5,0.7,1.1,1.3,1.9c0.5-0.6,0.9-1.2,1.1-1.8c0.2-0.6,0.4-1,0.4-1.4c0-0.1,0-0.2-0.1-0.3
		C579.9,371.6,579.7,371.5,579.3,371.4z M575.1,372.5c-0.6,0.3-1,0.6-1.2,0.8c-0.3,0.3-0.6,0.6-0.8,1s-0.2,0.7-0.2,1
		c0,0.6,0.2,1.1,0.7,1.6c0.4,0.4,1,0.7,1.6,0.7c0.8,0,1.6-0.4,2.4-1.1C576.6,375.3,575.8,374,575.1,372.5z M576.2,371.1
		c0.8-0.3,1.3-0.7,1.6-1.1s0.4-0.8,0.4-1.2c0-0.5-0.1-0.9-0.4-1.2c-0.2-0.3-0.5-0.4-0.9-0.4c-0.2,0-0.5,0.1-0.7,0.2
		s-0.4,0.3-0.5,0.6s-0.2,0.5-0.2,0.8C575.6,369.3,575.8,370.1,576.2,371.1z"/>
	<path class="st6" d="M588.5,371v-0.5c0.9,0.1,1.5,0.1,1.9,0.1c0.3,0,0.9,0,1.9-0.1v0.5c-0.5,0.1-0.8,0.2-0.9,0.3
		c-0.1,0.1-0.1,0.1-0.1,0.2s0.1,0.4,0.3,0.8c0.6,1.5,1.2,2.8,1.7,4l0.9-2.5c0.5-1.3,0.7-2.1,0.7-2.3c0-0.1,0-0.2-0.1-0.2
		c-0.1-0.1-0.2-0.1-0.4-0.2c-0.1,0-0.1,0-0.2-0.1v-0.5c0.7,0.1,1.2,0.1,1.5,0.1c0.4,0,0.8,0,1.3-0.1v0.5c-0.4,0.1-0.7,0.2-0.9,0.4
		c-0.1,0.2-0.4,0.8-0.9,1.9l-1.6,4.3c-0.5,1.3-0.8,2.2-1.1,2.7c-0.3,0.6-0.7,1-1.1,1.3s-0.8,0.4-1.2,0.4c-0.2,0-0.4,0-0.8-0.1
		c-0.1-0.3-0.2-0.6-0.2-0.7s-0.2-0.4-0.3-0.7l0.3-0.2c0.4,0.4,0.8,0.6,1.2,0.6s0.7-0.1,1-0.4c0.4-0.4,0.7-1.1,1-2.1l-1.6-3.7
		c-0.5-1.2-0.9-2.1-1.3-2.8c-0.1-0.2-0.2-0.4-0.3-0.4C589.2,371.3,588.9,371.1,588.5,371z"/>
	<path class="st6" d="M597.7,374.6c0-1.3,0.4-2.4,1.1-3.2c0.8-0.8,1.8-1.2,3-1.2s2.1,0.4,2.8,1.1s1,1.7,1,2.9c0,1.4-0.4,2.4-1.2,3.2
		c-0.8,0.8-1.8,1.2-3,1.2s-2.1-0.4-2.8-1.1C598.1,376.9,597.7,375.9,597.7,374.6z M599.3,373.9c0,0.9,0.1,1.6,0.2,2
		c0.2,0.7,0.5,1.2,0.9,1.6s0.9,0.5,1.4,0.5c0.7,0,1.2-0.3,1.7-0.8c0.4-0.5,0.7-1.3,0.7-2.5c0-1.3-0.2-2.2-0.7-2.9
		c-0.5-0.6-1.1-0.9-1.8-0.9s-1.2,0.2-1.6,0.7C599.5,372.2,599.3,372.9,599.3,373.9z"/>
	<path class="st6" d="M606.4,371.4v-0.5c1-0.1,1.9-0.2,2.8-0.4l0.2,0.2c-0.1,1-0.2,2.1-0.2,3.5c0,1.2,0,1.9,0.1,2.3
		c0.1,0.3,0.2,0.6,0.5,0.8s0.5,0.3,0.9,0.3s0.8-0.1,1.1-0.3c0.4-0.2,0.6-0.5,0.7-0.8s0.2-0.8,0.2-1.5c0-0.1,0-1,0-2.8
		c0-0.2-0.1-0.4-0.2-0.5c-0.1-0.1-0.4-0.1-0.9-0.2h-0.3V371c1.2-0.1,2.1-0.2,2.8-0.4l0.2,0.2c0,0.5-0.1,1-0.1,1.7s0,1.5,0,2.4
		c0,1.2,0,1.8,0.1,2.1s0.2,0.3,0.5,0.3c0.1,0,0.4,0,0.9-0.1v0.5c-0.6,0.1-1,0.3-1.4,0.5s-0.8,0.4-1.2,0.6l-0.2-0.2
		c0.1-0.4,0.1-0.8,0.1-1.2c-0.7,0.6-1.1,1-1.5,1.2s-0.7,0.2-1.1,0.2c-0.8,0-1.3-0.2-1.7-0.6s-0.6-0.9-0.6-1.7v-2.9
		c0-1-0.1-1.6-0.2-1.8c-0.1-0.2-0.5-0.3-1-0.3C606.6,371.4,606.5,371.4,606.4,371.4z"/>
	<path class="st6" d="M616,371.9v-0.5c1-0.3,1.9-0.6,2.6-1.1l0.2,0.2c-0.1,0.5-0.1,1.1-0.2,1.8c0.7-0.8,1.1-1.3,1.4-1.5
		s0.6-0.3,0.9-0.3c0.2,0,0.5,0.1,0.8,0.2c-0.1,0.6-0.2,1.1-0.3,1.7H621c0-0.3-0.1-0.5-0.2-0.6c-0.1-0.1-0.2-0.2-0.4-0.2
		s-0.5,0.1-0.7,0.3c-0.4,0.3-0.6,0.7-0.8,1c-0.2,0.4-0.3,1-0.3,1.7c0,1.3,0,2.1,0.1,2.6c0,0.2,0.1,0.3,0.2,0.4
		c0.1,0.1,0.5,0.2,1.2,0.4v0.5c-0.7-0.1-1.3-0.1-1.9-0.1c-0.5,0-1.2,0-2.3,0.1V378c0.8-0.2,1.2-0.3,1.3-0.4s0.1-0.4,0.1-0.8V375
		c0-1.8,0-2.7,0-2.8c-0.1-0.2-0.2-0.3-0.5-0.3c-0.1,0-0.4,0-0.7,0.1C616.1,371.9,616,371.9,616,371.9z"/>
	<path class="st6" d="M626.1,371.9v-0.5c1.1-0.3,2-0.7,2.6-1.1l0.3,0.2c-0.1,0.5-0.1,1-0.1,1.6c0.7-0.8,1.2-1.3,1.6-1.5
		c0.3-0.2,0.6-0.2,1-0.2c0.9,0,1.6,0.3,2.2,0.9c0.6,0.6,0.8,1.5,0.8,2.6c0,0.9-0.2,1.7-0.6,2.4c-0.4,0.7-0.9,1.3-1.6,1.7
		c-0.7,0.4-1.4,0.7-2,0.7c-0.2,0-0.4,0-0.7-0.1c-0.2-0.1-0.5-0.1-0.8-0.3c0,1.5,0,2.3,0.1,2.6c0,0.1,0.1,0.2,0.2,0.3
		c0.1,0.1,0.4,0.2,1,0.3c0.1,0,0.2,0,0.3,0.1v0.5c-0.9-0.1-1.5-0.1-2-0.1c-0.4,0-1.2,0-2.3,0.1v-0.5l0.4-0.1
		c0.5-0.1,0.8-0.2,0.9-0.3c0.1-0.1,0.2-0.3,0.2-0.7c0-0.2,0-1.5,0-3.8v-3.4V373c0-0.6,0-0.9-0.1-1c0-0.1-0.1-0.1-0.3-0.1
		C626.9,371.8,626.6,371.9,626.1,371.9z M628.8,377c0.3,0.3,0.6,0.5,0.9,0.6c0.3,0.1,0.6,0.2,1,0.2c0.6,0,1.2-0.3,1.6-0.8
		c0.5-0.5,0.7-1.3,0.7-2.3s-0.2-1.8-0.7-2.4c-0.3-0.4-0.8-0.7-1.4-0.7c-0.4,0-0.7,0.1-1.1,0.3s-0.6,0.5-0.8,0.9s-0.3,0.8-0.3,1.3
		L628.8,377z"/>
	<path class="st6" d="M642.1,376.5l0.3,0.5l-1.7,1.2c-0.2,0.2-0.5,0.3-0.7,0.3c-0.4,0.1-0.7,0.2-1.1,0.2c-0.9,0-1.7-0.4-2.3-1.1
		s-1-1.7-1-2.9c0-1.3,0.4-2.4,1.2-3.2c0.8-0.8,1.7-1.2,2.8-1.2c0.9,0,1.5,0.2,2,0.7s0.7,1.2,0.7,2.2c-0.2,0.1-0.4,0.3-0.6,0.5
		c-0.4,0-0.6,0-0.7,0c-1.5,0-2.7,0-3.8,0.1c0,1.2,0.2,2.2,0.6,2.8c0.4,0.6,1,1,1.7,1c0.4,0,0.7-0.1,1.1-0.2
		C641,377.1,641.5,376.9,642.1,376.5z M640.9,372.9c0-0.5-0.2-1-0.4-1.2c-0.3-0.4-0.7-0.6-1.3-0.6c-0.5,0-0.9,0.2-1.2,0.5
		c-0.4,0.3-0.6,0.8-0.8,1.5c0.2,0,0.4,0,0.5,0C638.6,373,639.7,373,640.9,372.9z"/>
	<path class="st6" d="M644.5,372.9l-0.5-0.1c0.1-0.6,0.2-1.1,0.2-1.7c1.1-0.5,2-0.7,2.9-0.7c0.4,0,0.7,0.1,1,0.2s0.5,0.3,0.7,0.4
		c0.2,0.2,0.3,0.4,0.4,0.7s0.1,0.7,0.1,1.3l-0.1,3.4c0,0.5,0.1,0.8,0.2,0.9s0.2,0.2,0.4,0.2s0.5-0.1,0.9-0.4l0.3,0.3
		c-0.8,0.7-1.2,1.1-1.3,1.1c-0.2,0.1-0.3,0.1-0.6,0.1c-0.4,0-0.6-0.1-0.8-0.3c-0.2-0.2-0.3-0.5-0.4-0.9c-0.7,0.5-1.2,0.8-1.5,1
		c-0.3,0.1-0.7,0.2-1,0.2c-0.6,0-1.1-0.2-1.5-0.6s-0.6-0.9-0.6-1.4c0-0.4,0.1-0.7,0.2-1c0.1-0.3,0.3-0.5,0.6-0.8
		c0.2-0.2,0.5-0.4,1-0.6c1.1-0.5,2-0.9,2.8-1.3c0-0.8-0.2-1.3-0.4-1.6s-0.6-0.4-1.1-0.4s-0.8,0.1-1.2,0.4
		C645.1,371.8,644.8,372.3,644.5,372.9z M648,373.8c-1.4,0.6-2.3,1.1-2.6,1.4s-0.5,0.7-0.5,1.1s0.1,0.7,0.3,1s0.5,0.4,0.8,0.4
		s0.7-0.1,1-0.3c0.4-0.2,0.6-0.4,0.7-0.7c0.1-0.3,0.2-0.7,0.2-1.4L648,373.8L648,373.8z"/>
	<path class="st6" d="M658,373.2h-0.6c0-0.7-0.2-1.2-0.5-1.6c-0.3-0.3-0.8-0.5-1.3-0.5c-0.4,0-0.8,0.1-1.2,0.3
		c-0.4,0.2-0.7,0.6-0.9,1.1s-0.3,1.1-0.3,1.7c0,1,0.3,1.8,0.8,2.4s1.1,0.9,1.7,0.9c0.7,0,1.5-0.3,2.5-0.8l0.3,0.5
		c-0.9,0.6-1.6,1.1-2.2,1.4c-0.3,0.1-0.6,0.2-1,0.2c-1,0-1.8-0.3-2.3-0.8c-0.8-0.7-1.2-1.8-1.2-3c0-1.3,0.4-2.4,1.2-3.3
		s1.9-1.3,3.1-1.3c0.8,0,1.6,0.2,2.4,0.6c0,0.2-0.1,0.4-0.2,0.7C658.2,372.1,658.1,372.6,658,373.2z"/>
	<path class="st6" d="M665.8,376.5l0.3,0.5l-1.7,1.2c-0.2,0.2-0.5,0.3-0.7,0.3c-0.4,0.1-0.7,0.2-1.1,0.2c-0.9,0-1.7-0.4-2.3-1.1
		s-1-1.7-1-2.9c0-1.3,0.4-2.4,1.2-3.2c0.8-0.8,1.7-1.2,2.8-1.2c0.9,0,1.5,0.2,2,0.7s0.7,1.2,0.7,2.2c-0.2,0.1-0.4,0.3-0.6,0.5
		c-0.4,0-0.6,0-0.7,0c-1.5,0-2.7,0-3.8,0.1c0,1.2,0.2,2.2,0.6,2.8c0.4,0.6,1,1,1.7,1c0.4,0,0.7-0.1,1.1-0.2
		C664.7,377.1,665.2,376.9,665.8,376.5z M664.6,372.9c0-0.5-0.2-1-0.4-1.2c-0.3-0.4-0.7-0.6-1.3-0.6c-0.5,0-0.9,0.2-1.2,0.5
		c-0.4,0.3-0.6,0.8-0.8,1.5c0.2,0,0.4,0,0.5,0C662.4,373,663.4,373,664.6,372.9z"/>
	<path class="st6" d="M671.6,374.6c0-1.3,0.4-2.4,1.1-3.2c0.8-0.8,1.8-1.2,3-1.2s2.1,0.4,2.8,1.1s1,1.7,1,2.9c0,1.4-0.4,2.4-1.2,3.2
		c-0.8,0.8-1.8,1.2-3,1.2s-2.1-0.4-2.8-1.1C671.9,376.9,671.6,375.9,671.6,374.6z M673.1,373.9c0,0.9,0.1,1.6,0.2,2
		c0.2,0.7,0.5,1.2,0.9,1.6s0.9,0.5,1.4,0.5c0.7,0,1.2-0.3,1.7-0.8c0.4-0.5,0.7-1.3,0.7-2.5c0-1.3-0.2-2.2-0.7-2.9
		c-0.5-0.6-1.1-0.9-1.8-0.9s-1.2,0.2-1.6,0.7C673.4,372.2,673.1,372.9,673.1,373.9z"/>
	<path class="st6" d="M680.6,378.5V378c0.7-0.2,1.1-0.3,1.1-0.4c0.1-0.2,0.1-1.2,0.1-3.2c0-1,0-2,0-2.9c-0.4,0-0.8,0-1.2,0.1v-0.4
		c0.4-0.2,0.8-0.4,1.2-0.6c0-1,0-1.5,0.1-1.8c0.1-0.4,0.3-0.8,0.6-1.2s0.8-0.7,1.3-1c0.4-0.2,0.8-0.3,1.2-0.3c0.3,0,0.6,0,0.9,0.1
		c0.3,0.1,0.6,0.2,1.1,0.4c-0.2,0.6-0.4,1.2-0.6,1.8l-0.5-0.1c-0.1-0.6-0.2-0.9-0.5-1.2c-0.2-0.2-0.6-0.3-1-0.3
		c-0.3,0-0.6,0.1-0.9,0.3c-0.2,0.2-0.4,0.5-0.5,1c-0.1,0.3-0.1,0.9-0.1,1.8c0,0.1,0,0.3,0,0.5c0.4,0,0.6,0,0.7,0h1.4l0.1,0.1
		c-0.2,0.2-0.3,0.5-0.4,0.8c-0.6,0-1.2-0.1-1.8-0.1c0,0.8,0,1.8,0,3.1v2.2v0.1c0,0.4,0,0.7,0.1,0.8c0.1,0.1,0.4,0.2,1.1,0.4
		c0.1,0,0.2,0,0.3,0.1v0.5c-0.7-0.1-1.4-0.1-1.9-0.1C682.3,378.4,681.6,378.5,680.6,378.5z"/>
	<path class="st6" d="M689.9,371.9v-0.5c1-0.3,1.9-0.6,2.6-1.1l0.2,0.2c-0.1,0.4-0.1,0.9-0.1,1.4l1.2-1.1c0.1-0.1,0.3-0.2,0.5-0.3
		c0.3-0.1,0.6-0.2,0.9-0.2c0.6,0,1.1,0.2,1.5,0.5c0.3,0.2,0.5,0.6,0.6,1.1c0.6-0.7,1.1-1.1,1.3-1.3c0.4-0.2,0.9-0.3,1.4-0.3
		c0.4,0,0.8,0.1,1.1,0.3c0.3,0.2,0.6,0.4,0.7,0.6c0.2,0.2,0.3,0.5,0.3,0.7c0,0.3,0.1,0.7,0.1,1.3v2.3c0,1.1,0,1.8,0.1,2
		c0,0.1,0.1,0.2,0.2,0.3c0.1,0.1,0.5,0.2,1.1,0.3v0.5c-0.7-0.1-1.3-0.1-1.8-0.1c-0.4,0-1.2,0-2.2,0.1v-0.5c0.1,0,0.2-0.1,0.2-0.1
		c0.5-0.1,0.8-0.3,0.9-0.3c0.1-0.1,0.1-0.3,0.2-0.7c0.1-0.8,0.1-1.6,0.1-2.6c0-0.9,0-1.6-0.1-1.8c-0.1-0.3-0.2-0.5-0.5-0.7
		c-0.2-0.2-0.5-0.2-0.9-0.2c-0.5,0-0.9,0.1-1.3,0.4c-0.4,0.3-0.6,0.7-0.7,1.1c-0.1,0.2-0.1,1-0.1,2.2c0,1.4,0,2.2,0.1,2.3
		s0.5,0.3,1.2,0.4v0.5c-0.7-0.1-1.4-0.1-2-0.1s-1.3,0-2,0.1v-0.5l0.2-0.1c0.5-0.1,0.8-0.3,0.9-0.4c0.1-0.2,0.2-0.7,0.2-1.6v-2.5
		c0-0.8-0.1-1.3-0.4-1.6c-0.3-0.3-0.6-0.5-1.1-0.5c-0.4,0-0.8,0.1-1.1,0.3s-0.6,0.5-0.8,0.9c-0.1,0.3-0.2,0.8-0.2,1.5v1.4
		c0,1.1,0,1.7,0.1,1.8c0.1,0.1,0.4,0.3,1,0.4c0.1,0,0.2,0,0.3,0.1v0.5c-0.7-0.1-1.3-0.1-1.8-0.1s-1.2,0-2.2,0.1v-0.5
		c0.7-0.1,1-0.2,1.1-0.3c0.1-0.1,0.1-0.5,0.1-1.2v-0.2v-2.4c0-1.1,0-1.7-0.1-1.8c-0.1-0.1-0.2-0.2-0.4-0.2
		C690.6,371.8,690.3,371.8,689.9,371.9z"/>
	<path class="st6" d="M704.4,371.8v-0.5c0.9-0.2,1.8-0.6,2.6-1.1l0.2,0.2c-0.1,1.2-0.2,2.8-0.2,5c0,1,0,1.6,0.1,1.9
		c0,0.2,0.1,0.3,0.2,0.3c0.1,0.1,0.4,0.2,0.9,0.3c0.1,0,0.2,0,0.3,0.1v0.5c-0.7-0.1-1.3-0.1-1.8-0.1c-0.3,0-1,0-2.3,0.1V378
		c0.7-0.2,1.2-0.4,1.3-0.5c0.1-0.2,0.1-0.9,0.1-2.4v-1.8V373c0-0.6,0-1-0.1-1.1s-0.2-0.2-0.4-0.2
		C705.2,371.7,704.9,371.8,704.4,371.8z M706.5,366.3c0.2,0,0.5,0.1,0.6,0.3c0.2,0.2,0.3,0.4,0.3,0.6s-0.1,0.4-0.3,0.6
		s-0.4,0.3-0.6,0.3c-0.2,0-0.4-0.1-0.6-0.3c-0.2-0.2-0.3-0.4-0.3-0.6s0.1-0.4,0.3-0.6C706,366.4,706.2,366.3,706.5,366.3z"/>
	<path class="st6" d="M708.9,371.9v-0.5c1-0.2,1.9-0.6,2.7-1.1l0.2,0.1c-0.1,0.5-0.1,1-0.1,1.5l1.1-1c0.2-0.2,0.4-0.3,0.6-0.4
		c0.3-0.1,0.7-0.2,1-0.2c0.8,0,1.4,0.3,1.8,0.8c0.3,0.3,0.4,0.9,0.4,1.8v2c0,1.3,0,2.1,0,2.4c0,0.2,0.1,0.3,0.2,0.3s0.3,0.2,0.8,0.3
		c0.1,0,0.2,0.1,0.4,0.1v0.5c-0.7-0.1-1.2-0.1-1.7-0.1c-0.4,0-1.2,0-2.3,0.1V378c0.6-0.2,1-0.3,1.1-0.4s0.1-0.2,0.1-0.3
		c0.1-0.5,0.1-1.4,0.1-2.5c0-1.2,0-1.9-0.1-2.2c-0.1-0.4-0.2-0.6-0.5-0.8c-0.2-0.2-0.5-0.3-0.9-0.3s-0.7,0.1-1.1,0.3
		c-0.4,0.2-0.6,0.5-0.8,0.9s-0.3,0.9-0.3,1.6c0,2,0,3.1,0.1,3.2c0.1,0.2,0.4,0.3,1,0.5c0.1,0,0.2,0,0.3,0.1v0.5
		c-0.7-0.1-1.4-0.1-1.9-0.1s-1.2,0-2.2,0.1v-0.5c0.7-0.2,1-0.3,1.1-0.3s0.1-0.2,0.1-0.3c0.1-0.5,0.1-1.2,0.1-2.1
		c0-1.9,0-2.9-0.1-3.1s-0.2-0.3-0.5-0.3c-0.1,0-0.3,0-0.6,0.1C709.2,371.9,709.1,371.9,708.9,371.9z"/>
	<path class="st6" d="M723,367.9v-0.5c0.6-0.2,1-0.3,1.3-0.4s0.7-0.3,1.4-0.7l0.2,0.2c-0.1,1.3-0.2,3.7-0.2,7.2c0,1.9,0,3,0.1,3.2
		s0.2,0.3,0.5,0.3c0.2,0,0.5,0,0.9-0.1v0.4c-1.2,0.3-2.1,0.7-2.7,1.1l-0.2-0.2c0.1-0.4,0.1-0.8,0.1-1.2c-0.7,0.6-1.2,1-1.5,1.2
		s-0.7,0.2-1.2,0.2c-0.8,0-1.5-0.3-2.1-1c-0.6-0.6-0.8-1.5-0.8-2.7c0-0.8,0.1-1.5,0.4-2.1c0.2-0.4,0.5-0.9,0.9-1.3s0.8-0.7,1.3-0.9
		c0.5-0.2,1-0.4,1.4-0.4c0.2,0,0.5,0,0.7,0.1s0.6,0.1,0.9,0.2c0-0.3,0-0.4,0-0.5c0-1.3,0-2-0.1-2.2s-0.2-0.3-0.5-0.3
		c-0.1,0-0.3,0-0.5,0.1C723.2,367.8,723.1,367.8,723,367.9z M724.4,374.3c0-1.1,0-1.7-0.1-1.9c-0.1-0.3-0.3-0.6-0.7-0.8
		c-0.3-0.2-0.8-0.3-1.3-0.3c-0.6,0-1.2,0.3-1.6,0.8c-0.4,0.5-0.7,1.3-0.7,2.3s0.2,1.8,0.7,2.4c0.4,0.5,1,0.8,1.6,0.8
		c0.4,0,0.8-0.1,1.1-0.4c0.3-0.2,0.6-0.5,0.7-0.9C724.4,375.9,724.4,375.3,724.4,374.3z"/>
</g>
</svg>
