<?xml version="1.0" encoding="utf-8"?>
<!-- Generator: Adobe Illustrator 25.0.1, SVG Export Plug-In . SVG Version: 6.00 Build 0)  -->
<svg version="1.1" id="Layer_1" xmlns="http://www.w3.org/2000/svg" xmlns:xlink="http://www.w3.org/1999/xlink" x="0px" y="0px"
	 viewBox="0 0 1366 1225" style="enable-background:new 0 0 1366 1225;" xml:space="preserve">
<style type="text/css">
	.st0{fill:#FFFFFF;}
	.st1{fill:#98F4F4;}
	.st2{fill:#C3EDED;}
	.st3{fill:#E8F4F4;}
	.st4{opacity:0.2;fill:#FFFFFF;enable-background:new    ;}
	.st5{fill:#F2F2F2;}
	.st6{fill:#31DAE7;}
	.st7{fill:#F36B80;}
	.st8{fill:#82C8CE;}
	.st9{fill:#C7FBFF;}
	.st10{fill:#7FEAEA;}
	.st11{fill:#009ECF;}
	.st12{fill:#A4C2D4;}
	.st13{fill:#F1E9E3;}
	.st14{font-family:'ArialRoundedMTBold';}
	.st15{font-size:37.6387px;}
	.st16{fill:#FAD8C9;}
	.st17{fill:#79D3F2;}
	.st18{fill:#ACC6CB;}
	.st19{font-size:44.5797px;}
	.st20{fill:#69C0ED;}
	.st21{fill:#8AB0ED;}
	.st22{font-size:48.9514px;}
	.st23{font-size:41.4413px;}
	.st24{fill:#FFFFFF;stroke:#FFFFFF;stroke-miterlimit:10;}
	.st25{font-size:47.0772px;}
	.st26{font-size:45.0228px;}
	.st27{font-size:46.8834px;}
</style>
<g id="Ñëîé_2">
	<g>
		<rect y="-0.19" class="st0" width="1366.04" height="1225.19"/>
		<path class="st1" d="M0,1024.86c115.7,0,239.4,127.73,251.96,200.14C151.97,1225,0,1225,0,1225L0,1024.86L0,1024.86z"/>
		<path class="st2" d="M665.57,1225C654.18,722.67,992.66,765.55,922.8,452.45C863.11,184.87,536.17,309.78,484.56-0.19
			c278.52,0,881.48,0,881.48,0V1225H665.57z"/>
		<g>
			<path class="st0" d="M538.18,848.8l-9.14-14.7c-0.46-0.74-1.18-0.74-1.59,0c-0.46,0.74-0.46,1.9,0,2.57l7.17,11.52h-35.44
				c-0.65,0-1.14,0.8-1.14,1.84s0.49,1.84,1.14,1.84h35.48l-7.21,11.58c-0.46,0.74-0.46,1.9,0,2.57c0.23,0.37,0.53,0.55,0.8,0.55
				c0.3,0,0.57-0.18,0.8-0.55l9.14-14.7c0.23-0.37,0.34-0.8,0.34-1.29C538.52,849.6,538.37,849.11,538.18,848.8z"/>
			<path class="st0" d="M378.89,848.19h-35.44l7.17-11.52c0.46-0.74,0.46-1.9,0-2.57c-0.46-0.74-1.18-0.74-1.59,0l-9.14,14.7
				c-0.23,0.37-0.34,0.8-0.34,1.29s0.11,0.98,0.34,1.29l9.14,14.7c0.23,0.37,0.53,0.55,0.8,0.55c0.3,0,0.57-0.18,0.8-0.55
				c0.46-0.74,0.46-1.9,0-2.57l-7.21-11.58h35.48c0.65,0,1.14-0.8,1.14-1.84C380.02,849.05,379.53,848.19,378.89,848.19z"/>
		</g>
	</g>
</g>
<g>
	<path class="st3" d="M1260.84,1099.87c30.29-48.32,47.77-105.3,47.77-166.35c0-174.53-142.96-316.05-319.27-316.05
		s-319.3,141.48-319.3,316.05c0,61.05,17.48,118.03,47.76,166.35H1260.84z"/>
	<path class="st4" d="M1217.88,719.61c-13.8-1.75-27.87-0.29-41.74-1.38s-27.57-4.8-40.09-10.87c-3.45-1.67-6.9-3.56-10.65-4.44
		c-5.03-1.16-10.32-0.47-15.49-0.25c-10.1,0.4-20.27-1.09-29.78-4.44c-3.23-1.13-6.79-2.98-7.34-6.33c-0.66-4.25,4-7.31,8.11-8.76
		c4.11-1.45,8.99-3.27,9.91-7.49c0.4-1.89-0.15-4.04,0.92-5.67c0.7-1.13,1.98-1.75,3.23-2.25c13.58-5.82,28.38-8.07,43.1-8.69
		c3.23-0.15,6.54,0,9.91,0.11c-17.62-10-36.27-18.4-55.81-24.98c-9.33,0.47-18.69,0.62-28.05,0.33
		c-19.61-0.58-40.68-2.47-57.46,7.64c-2.17,1.31-4.37,2.98-5.07,5.42c-1.76,5.96,5.95,10.04,12.04,11.56
		c0.95,4.15-4.55,6.51-8.77,7.24c-13.62,2.4-27.06,5.93-40.06,10.58c-9.22,3.31-19.5,8.54-21.29,18.11
		c-1.28,6.73,2.35,13.67,7.75,17.93c5.36,4.29,12.23,6.33,18.98,7.64c23.06,4.44,46.92,1.38,70.31,3.6
		c3.12,0.29,6.39,0.73,8.92,2.55c4,2.87,5.1,8.25,7.89,12.33c5.58,8.04,16.74,9.49,26.58,10.04c21.88,1.16,43.84,1.35,65.72,0.55
		c5.51-0.22,11.12-0.47,16.48,0.95c5.62,1.49,10.5,4.8,15.71,7.34c12.34,6.11,26.25,8.25,39.91,10.33
		c13.99,2.11,28.12,4.25,42.26,3.93c-11.05-18.4-23.94-35.56-38.4-51.31C1222.99,720.37,1220.42,719.9,1217.88,719.61z"/>
	<g>
		<path class="st0" d="M1230.59,810.15c0,0-0.92,8.94-8.04,9.56c7.12,0.62,8.04,9.56,8.04,9.56s0.92-8.94,8.04-9.56
			C1231.5,819.13,1230.59,810.15,1230.59,810.15z"/>
		<path class="st0" d="M901.3,665.83c0,0-1.21,11.93-10.72,12.76c9.51,0.84,10.72,12.76,10.72,12.76s1.21-11.93,10.72-12.76
			C902.55,677.76,901.3,665.83,901.3,665.83z"/>
		<path class="st0" d="M1263.92,941.96c0,0-0.95,9.42-8.48,10.07c7.53,0.65,8.48,10.07,8.48,10.07s0.95-9.42,8.48-10.07
			C1264.88,951.41,1263.92,941.96,1263.92,941.96z"/>
		<g>
			<path class="st0" d="M1199.16,884.4c3.82,0,3.82-5.85,0-5.85C1195.38,878.54,1195.34,884.4,1199.16,884.4L1199.16,884.4z"/>
		</g>
		<g>
			<path class="st0" d="M1128.78,919.41c1.91,0,1.91-2.95,0-2.95C1126.87,916.47,1126.87,919.41,1128.78,919.41L1128.78,919.41z"/>
		</g>
		<g>
			<path class="st0" d="M1237.34,856.87c1.91,0,1.91-2.95,0-2.95C1235.43,853.96,1235.43,856.87,1237.34,856.87L1237.34,856.87z"/>
		</g>
		<g>
			<path class="st0" d="M1179.44,791.78c1.91,0,1.91-2.95,0-2.95C1177.53,788.84,1177.53,791.78,1179.44,791.78L1179.44,791.78z"/>
		</g>
		<g>
			<path class="st0" d="M868.95,713.64c1.91,0,1.91-2.95,0-2.95S867.04,713.64,868.95,713.64L868.95,713.64z"/>
		</g>
		<g>
			<path class="st0" d="M924.87,750.91c3.82,0,3.82-5.85,0-5.85C921.05,745.06,921.05,750.91,924.87,750.91L924.87,750.91z"/>
		</g>
		<g>
			<path class="st0" d="M927.51,705.83c1.91,0,1.91-2.95,0-2.95C925.6,702.88,925.6,705.83,927.51,705.83L927.51,705.83z"/>
		</g>
		<g>
			<path class="st0" d="M870.94,676.52c1.91,0,1.91-2.95,0-2.95C869.03,673.57,869.03,676.52,870.94,676.52L870.94,676.52z"/>
		</g>
		<g>
			<path class="st0" d="M849.2,675.79c0.95,0,0.95-1.45,0-1.45C848.25,674.3,848.25,675.79,849.2,675.79L849.2,675.79z"/>
		</g>
		<g>
			<path class="st0" d="M757.78,800.8c0.95,0,0.95-1.45,0-1.45C756.83,799.35,756.83,800.8,757.78,800.8L757.78,800.8z"/>
		</g>
		<g>
			<path class="st0" d="M811.72,795.75c2.86,0,2.86-4.4,0-4.4C808.85,791.35,808.85,795.75,811.72,795.75L811.72,795.75z"/>
		</g>
		<g>
			<path class="st0" d="M704.51,875.12c1.91,0,1.91-2.95,0-2.95C702.6,872.18,702.6,875.12,704.51,875.12L704.51,875.12z"/>
		</g>
		<g>
			<path class="st0" d="M1168.91,709.61c4.3,0,4.3-6.58,0-6.58C1164.61,702.99,1164.61,709.61,1168.91,709.61L1168.91,709.61z"/>
		</g>
		<g>
			<path class="st0" d="M1094.6,661.61c2.86,0,2.86-4.4,0-4.4C1091.73,657.21,1091.73,661.61,1094.6,661.61L1094.6,661.61z"/>
		</g>
		<g>
			<path class="st0" d="M1028.15,678.45c1.91,0,1.91-2.95,0-2.95C1026.24,675.54,1026.24,678.45,1028.15,678.45L1028.15,678.45z"/>
		</g>
		<g>
			<path class="st0" d="M1143.24,689.17c1.43,0,1.43-2.18,0-2.18C1141.85,686.96,1141.81,689.17,1143.24,689.17L1143.24,689.17z"/>
		</g>
		<g>
			<path class="st0" d="M1201.14,723.68c1.43,0,1.43-2.18,0-2.18C1199.71,721.5,1199.71,723.68,1201.14,723.68L1201.14,723.68z"/>
		</g>
		<g>
			<path class="st0" d="M1145.89,789.46c1.43,0,1.43-2.18,0-2.18C1144.46,787.24,1144.46,789.46,1145.89,789.46L1145.89,789.46z"/>
		</g>
		<g>
			<path class="st0" d="M911.06,793.35c1.43,0,1.43-2.18,0-2.18S909.63,793.35,911.06,793.35L911.06,793.35z"/>
		</g>
	</g>
	<path class="st4" d="M1162.15,823.24c-2.13-2.91-5.43-4.8-8.66-6.44c-47.8-24.07-104.78-15.71-158.24-19.93
		c-13.69-1.09-27.57-3.09-39.91-9.09c-14.39-6.98-26.95-19.38-42.96-20.36c-11.23-0.69-26.14,2.84-30.99-7.24
		c-1.17-2.47-1.14-5.31-1.47-8.04c-4.92-37.05-75.85-26.29-82.79-25.96c-16.96,0.8-33.92,1.56-50.85,2.36
		c-16.78,19.45-31.21,40.98-42.85,64.07c15.93-0.15,31.87-0.25,47.84-0.4c7.86-0.07,15.86-0.15,23.39,2.15
		c10.24,3.09,18.83,10.33,29.04,13.49c7.86,2.44,16.23,2.4,24.49,2.36c29.78-0.22,59.59-0.47,89.36-0.69
		c5.62-0.04,11.42-0.07,16.63,1.96c5.14,2,9.33,5.78,13.99,8.73c15.35,9.74,34.66,9.93,52.57,13.31c5.69,1.09,11.93,2.98,14.65,8.04
		c4.52,8.44-4.04,18.07-12.7,22.25c-34.73,16.87-77.47,0.51-114.44,11.82c-9.88,3.02-19.05,7.96-28.67,11.71
		c-31.57,12.25-66.75,11.16-100.49,7.67c-28.56-2.98-57.24-7.56-85.84-6.8c-2.13,14.8-3.27,29.93-3.27,45.31
		c0,4.84,0.11,9.64,0.33,14.4c15.97,0.36,31.9,0.73,47.88,1.05c30.14,0.65,60.32,1.35,90.39-1.05c16.82-1.35,33.81-3.75,49.42-10.11
		c9.4-3.85,18.25-9.09,27.9-12.22c17.04-5.49,35.39-4.04,53.27-4.91c27.61-1.38,54.59-8.47,81.28-15.53
		c41.16-10.87,142.6-27.13,145.2-68.32C1166.04,832.07,1164.98,827.09,1162.15,823.24z"/>
	<path class="st5" d="M1059.57,941.96H740.71c-3.49,0-6.31,2.8-6.31,6.25v10.76h331.53v-10.76
		C1065.92,944.76,1063.06,941.96,1059.57,941.96z"/>
	<g>
		<path class="st6" d="M852.95,766.55h-43.87v-31.89h21.18c1.17,0,2.13-0.95,2.13-2.11s-0.95-2.11-2.13-2.11H728.74v-11.53
			c0-1.27-1.03-2.29-2.31-2.29l0,0c-1.29,0-2.35,1.02-2.35,2.29v11.53h-13.36c-1.17,0-2.13,0.95-2.13,2.11s0.95,2.11,2.13,2.11
			h13.36v111.52c0,1.27,1.03,2.29,2.35,2.29l0,0c1.28,0,2.31-1.02,2.31-2.29V734.66h78.42v31.89h-43.87c-0.88,0-1.58,0.69-1.58,1.56
			s0.7,1.56,1.58,1.56h3.97v34.72h0.51v-34.72h22.29v34.72h0.51v-34.72h16.63h1.91h16.04v34.72h0.51v-34.72h23.46v34.72h0.51v-34.72
			h3.38c0.88,0,1.58-0.69,1.58-1.56C854.52,767.24,853.83,766.55,852.95,766.55z"/>
		<path class="st7" d="M768.43,798.29l1.73,3.75c0.15,0.33,0.44,0.58,0.81,0.62l3.82,0.58c0.84,0.15,1.21,1.27,0.59,1.93l-2.79,2.91
			c-0.26,0.25-0.37,0.62-0.29,1.02l0.66,4.11c0.15,0.91-0.77,1.64-1.54,1.2l-3.41-1.93c-0.29-0.18-0.66-0.18-0.99,0l-3.41,1.93
			c-0.77,0.44-1.69-0.25-1.54-1.2l0.66-4.11c0.07-0.36-0.04-0.73-0.29-1.02l-2.79-2.91c-0.62-0.65-0.29-1.78,0.59-1.93l3.82-0.58
			c0.33-0.04,0.62-0.29,0.81-0.62l1.73-3.75C766.93,797.46,768.06,797.46,768.43,798.29z"/>
		<path class="st5" d="M826.29,798.29l1.73,3.75c0.15,0.33,0.44,0.58,0.81,0.62l3.82,0.58c0.84,0.15,1.21,1.27,0.59,1.93l-2.79,2.91
			c-0.26,0.25-0.37,0.62-0.29,1.02l0.66,4.11c0.15,0.91-0.77,1.64-1.54,1.2l-3.41-1.93c-0.29-0.18-0.66-0.18-0.99,0l-3.41,1.93
			c-0.77,0.44-1.69-0.25-1.54-1.2l0.66-4.11c0.07-0.36-0.04-0.73-0.29-1.02l-2.79-2.91c-0.62-0.65-0.29-1.78,0.59-1.93l3.82-0.58
			c0.33-0.04,0.62-0.29,0.81-0.62l1.73-3.75C824.79,797.46,825.89,797.46,826.29,798.29z"/>
		<path class="st6" d="M790.9,804.04l1.14,3.75c0.11,0.33,0.29,0.58,0.51,0.62l2.53,0.62c0.59,0.15,0.81,1.27,0.37,1.93l-1.84,2.91
			c-0.15,0.25-0.22,0.62-0.18,1.02l0.44,4.11c0.11,0.91-0.51,1.64-0.99,1.2l-2.28-1.93c-0.22-0.18-0.44-0.18-0.66,0l-2.28,1.93
			c-0.51,0.44-1.1-0.25-0.99-1.2l0.44-4.11c0.04-0.36-0.04-0.73-0.18-1.02l-1.84-2.91c-0.4-0.65-0.18-1.78,0.37-1.93l2.53-0.62
			c0.22-0.04,0.4-0.29,0.51-0.62l1.14-3.75C789.91,803.17,790.64,803.17,790.9,804.04z"/>
		<path class="st7" d="M849.94,804.04l1.14,3.75c0.11,0.33,0.29,0.58,0.51,0.62l2.53,0.62c0.59,0.15,0.81,1.27,0.37,1.93l-1.84,2.91
			c-0.15,0.25-0.22,0.62-0.18,1.02l0.44,4.11c0.11,0.91-0.51,1.64-0.99,1.2l-2.28-1.93c-0.22-0.18-0.44-0.18-0.66,0l-2.28,1.93
			c-0.51,0.44-1.1-0.25-0.99-1.2l0.44-4.11c0.04-0.36-0.04-0.73-0.18-1.02l-1.84-2.91c-0.4-0.65-0.18-1.78,0.37-1.93l2.53-0.62
			c0.22-0.04,0.4-0.29,0.51-0.62l1.14-3.75C848.94,803.17,849.68,803.17,849.94,804.04z"/>
	</g>
	<path class="st8" d="M1287.57,1105H687.99c-1.06,0-1.91-0.84-1.91-1.89v-6.51c0-1.05,0.84-1.89,1.91-1.89h599.58
		c1.06,0,1.91,0.84,1.91,1.89v6.51C1289.48,1104.16,1288.59,1105,1287.57,1105z"/>
	<path class="st9" d="M1065.92,842.36v15.09H734.4v-7.53c0-4.18-3.41-7.53-7.64-7.53l0,0c-4.22,0-7.64,3.38-7.64,7.53v7.53v16.36
		v85.23v25.78v110.03h15.24V984.83h331.53v110.03h15.24V842.36H1065.92z M867.74,873.78h57.16v85.23h-57.16V873.78z M858.86,959.01
		h-57.16v-85.23h57.16V959.01z M933.79,873.78h57.16v85.23h-57.16V873.78z M734.4,873.78h58.41v85.23H734.4L734.4,873.78
		L734.4,873.78z M1065.92,959.01h-66.05v-85.23h66.05V959.01z"/>
</g>
<g>
	<g>
		<path class="st10" d="M1136.63,1081.48c0,3.05-2.4,5.55-5.33,5.55h-49.47c-2.96,0-5.33-2.5-5.33-5.55v-46.41
			c0-3.05,2.4-5.55,5.33-5.55h49.47c2.96,0,5.33,2.5,5.33,5.55V1081.48z"/>
		<path class="st10" d="M1131.79,1077.75c0,2.58-1.99,4.64-4.46,4.64h-41.52c-2.48,0-4.46-2.1-4.46-4.64v-38.95
			c0-2.58,1.99-4.68,4.46-4.68h41.52c2.48,0,4.46,2.1,4.46,4.68V1077.75z"/>
		<path class="st10" d="M1131.68,1029.56c0.15,7.3,0.41,14.6,0.23,21.93c-0.23,8.65,0,19.04-8.29,24.12
			c-5.7,3.53-12.98,3.49-19.39,3.37c-9.34-0.16-18.34-0.4-27.72-0.4v2.9c0,3.05,2.4,5.55,5.33,5.55h49.47c2.96,0,5.33-2.5,5.33-5.55
			v-46.41C1136.63,1032.14,1134.46,1029.76,1131.68,1029.56z"/>
		<path class="st10" d="M1080.22,1040.51c0,0-0.56-8.33,5.55-7.77c6.15,0.59,9.83,1.15,14.4,0.28s2.85,6.62-4.01,7.62
			c-6.86,0.99-9.26,0-9.26,4.01C1086.94,1048.72,1079.92,1051.18,1080.22,1040.51z"/>
	</g>
	<g>
		<path class="st11" d="M1263.96,1081.96c0,3.21-2.66,5.83-5.93,5.83h-54.8c-3.26,0-5.93-2.62-5.93-5.83v-48.91
			c0-3.21,2.66-5.83,5.93-5.83h54.8c3.26,0,5.93,2.62,5.93,5.83V1081.96z"/>
		<path class="st12" d="M1258.49,1027.26c0.19,7.7,0.45,15.39,0.26,23.09c-0.23,9.08,0,20.03-9.19,25.43
			c-6.34,3.69-14.36,3.65-21.49,3.57c-10.35-0.16-20.33-0.44-30.72-0.4v3.05c0,3.21,2.66,5.83,5.93,5.83h54.8
			c3.26,0,5.93-2.62,5.93-5.83v-48.91C1263.96,1030,1261.56,1027.46,1258.49,1027.26z"/>
		<path class="st13" d="M1201.48,1038.8c0,0-0.64-8.77,6.15-8.17c6.79,0.59,10.91,1.23,15.98,0.32c5.06-0.91,3.15,6.98-4.43,8.01
			c-7.58,1.07-10.28,0-10.28,4.24C1208.9,1047.41,1201.14,1050.03,1201.48,1038.8z"/>
	</g>
	<g>
		<path class="st11" d="M1197.09,1081.28c0,3.05-2.4,5.55-5.33,5.55h-49.47c-2.96,0-5.33-2.5-5.33-5.55v-46.41
			c0-3.05,2.4-5.55,5.33-5.55h49.47c2.93,0,5.33,2.5,5.33,5.55V1081.28z"/>
		<path class="st12" d="M1192.14,1029.32c0.15,7.3,0.41,14.6,0.23,21.93c-0.23,8.65,0,19.04-8.29,24.12
			c-5.7,3.53-12.98,3.49-19.39,3.37c-9.34-0.16-18.34-0.4-27.72-0.4v2.9c0,3.05,2.4,5.55,5.33,5.55h49.47c2.93,0,5.33-2.5,5.33-5.55
			v-46.41C1197.09,1031.94,1194.91,1029.56,1192.14,1029.32z"/>
		<path class="st13" d="M1140.68,1040.43c0,0-0.56-8.21,5.55-7.66c6.15,0.56,9.83,1.15,14.4,0.28c4.58-0.83,2.85,6.51-4.01,7.5
			c-6.86,0.99-9.26,0-9.26,3.97C1147.4,1048.48,1140.42,1050.94,1140.68,1040.43z"/>
	</g>
	<g>
		<path class="st3" d="M1121.85,910.96c0,3.05-2.4,5.55-5.33,5.55h-49.47c-2.96,0-5.33-2.5-5.33-5.55v-46.41
			c0-3.05,2.4-5.55,5.33-5.55h49.47c2.93,0,5.33,2.5,5.33,5.55V910.96z"/>
		<path class="st13" d="M1069.61,877.72c0,0-0.56-8.33,5.55-7.77c6.15,0.56,9.86,1.15,14.4,0.28c4.58-0.87,2.85,6.62-4.01,7.62
			c-6.86,0.99-9.26,0-9.26,4.01C1076.32,885.93,1069.31,888.43,1069.61,877.72z"/>
		<text transform="matrix(0.9305 0 0 1 1080.9697 902.8828)" class="st14 st15">J</text>
		<path class="st16" d="M1116.9,859.04c0.15,7.3,0.41,14.6,0.23,21.93c-0.23,8.65,0,19.04-8.29,24.12
			c-5.7,3.49-12.98,3.49-19.39,3.37c-9.38-0.16-18.38-0.4-27.72-0.4v2.9c0,3.05,2.4,5.55,5.33,5.55h49.47c2.93,0,5.33-2.5,5.33-5.55
			v-46.41C1121.85,861.62,1119.68,859.24,1116.9,859.04z"/>
		<path class="st17" d="M1140.94,968.12c0,3.05-2.4,5.55-5.33,5.55h-49.47c-2.93,0-5.33-2.5-5.33-5.55v-46.41
			c0-3.05,2.4-5.55,5.33-5.55h49.47c2.96,0,5.33,2.5,5.33,5.55V968.12L1140.94,968.12z"/>
		<path class="st0" d="M1083.41,926.27c0,0-0.56-8.33,5.55-7.77c6.15,0.56,9.86,1.15,14.4,0.28c4.58-0.87,2.85,6.62-4.01,7.62
			s-9.26,0-9.26,4.01C1090.09,934.4,1083.11,936.98,1083.41,926.27z"/>
		<path class="st18" d="M1135.99,916.2c0.15,7.3,0.41,14.6,0.23,21.93c-0.23,8.65,0,19.04-8.29,24.12
			c-5.7,3.53-12.98,3.49-19.39,3.37c-9.38-0.16-18.38-0.4-27.72-0.4v2.9c0,3.05,2.4,5.55,5.33,5.55h49.47c2.96,0,5.33-2.5,5.33-5.55
			v-46.41C1140.94,918.78,1138.77,916.4,1135.99,916.2z"/>
		<text transform="matrix(0.9007 0 0 1 1097.998 959.7871)" class="st14 st19">A</text>
		<path class="st20" d="M1120.47,1025.91c0,3.05-2.4,5.55-5.33,5.55h-49.47c-2.96,0-5.33-2.5-5.33-5.55V979.5
			c0-3.05,2.4-5.55,5.33-5.55h49.47c2.96,0,5.33,2.5,5.33,5.55V1025.91z"/>
		<path class="st20" d="M1115.63,1022.18c0,2.58-1.99,4.64-4.46,4.64h-41.52c-2.48,0-4.46-2.1-4.46-4.64v-38.95
			c0-2.58,1.99-4.68,4.46-4.68h41.52c2.48,0,4.46,2.1,4.46,4.68V1022.18L1115.63,1022.18z"/>
		<path class="st21" d="M1115.52,973.95c0.15,7.3,0.41,14.6,0.23,21.93c-0.23,8.65,0,19-8.29,24.12c-5.7,3.53-12.98,3.49-19.39,3.37
			c-9.38-0.16-18.34-0.4-27.72-0.4v2.9c0,3.05,2.4,5.55,5.33,5.55h49.47c2.96,0,5.33-2.5,5.33-5.55v-46.41
			C1120.47,976.57,1118.29,974.15,1115.52,973.95z"/>
		<path class="st20" d="M1064.06,984.9c0,0-0.56-8.33,5.55-7.77c6.15,0.59,9.83,1.15,14.4,0.28c4.58-0.87,2.85,6.62-4.01,7.62
			c-6.86,0.99-9.26,0-9.26,4.01C1070.77,993.11,1063.76,995.61,1064.06,984.9z"/>
		<text transform="matrix(0.907 0 0 1 1079.1719 1020.4746)" class="st14 st22">L</text>
	</g>
	<text transform="matrix(0.8815 0 0 1 1093.7354 1072.8281)" class="st14 st23">E</text>
</g>
<g>
	<g>
		<path class="st10" d="M996.98,1091.49c-3.47,0-6.29-2.22-6.29-4.9v-45.65c0-2.72,2.82-4.94,6.29-4.94h52.73
			c3.47,0,6.29,2.22,6.29,4.94v45.65c0,2.72-2.82,4.9-6.29,4.9H996.98z"/>
		<path class="st10" d="M1001.19,1087.03c-2.94,0-5.31-1.85-5.31-4.14v-38.32c0-2.29,2.37-4.14,5.31-4.14h44.27
			c2.94,0,5.31,1.85,5.31,4.14v38.32c0,2.29-2.37,4.14-5.31,4.14H1001.19z"/>
		<path class="st10" d="M1055.96,1086.92c-8.3,0.15-16.6,0.4-24.89,0.22c-9.81-0.22-21.62,0-27.39-7.66
			c-4.01-5.27-3.96-11.98-3.84-17.9c0.16-8.64,0.45-16.92,0.45-25.57h-3.31c-3.47,0-6.29,2.22-6.29,4.94v45.65
			c0,2.72,2.82,4.9,6.29,4.9h52.73C1053.06,1091.49,1055.71,1089.46,1055.96,1086.92z"/>
		<path class="st24" d="M1043.53,1039.49c0,0,9.48-0.51,8.83,5.12s-1.31,9.04-0.33,13.26c0.98,4.21-7.52,2.61-8.67-3.67
			c-1.14-6.32,0-8.53-4.58-8.53C1034.25,1045.66,1031.39,1039.23,1043.53,1039.49z"/>
	</g>
	<text transform="matrix(2.698479e-16 0.7161 -1 2.129574e-16 1006.5498 1051.457)" class="st14 st25">E</text>
</g>
<text transform="matrix(1.0593 0 0 1 1214.1885 1072.8994)" class="st14 st26">S</text>
<text transform="matrix(0.9853 0 0 1 1147.3196 1072.7701)" class="st14 st27">S</text>
</svg>
